<?xml version="1.0" encoding="UTF-8" standalone="no"?>
<!DOCTYPE svg PUBLIC "-//W3C//DTD SVG 1.1//EN"
 "http://www.w3.org/Graphics/SVG/1.1/DTD/svg11.dtd">
<!-- Generated by graphviz version 2.38.0 (20140413.2041)
 -->
<!-- Title: %3 Pages: 1 -->
<svg width="134pt" height="157pt"
 viewBox="0.00 0.00 133.70 157.40" xmlns="http://www.w3.org/2000/svg" xmlns:xlink="http://www.w3.org/1999/xlink">
<g id="graph0" class="graph" transform="scale(1 1) rotate(0) translate(4 153.397)">
<title>%3</title>
<polygon fill="white" stroke="none" points="-4,4 -4,-153.397 129.698,-153.397 129.698,4 -4,4"/>
<!-- &#45;1 -->
<g id="node1" class="node"><title>&#45;1</title>
<polygon fill="lightgray" stroke="black" points="53.8492,-149.397 27.8492,-149.397 27.8492,-131.397 53.8492,-131.397 53.8492,-149.397"/>
<text text-anchor="middle" x="40.8492" y="-138.197" font-family="Times,serif" font-size="9.00">&#45;1</text>
</g>
<!-- 3 -->
<g id="node6" class="node"><title>3</title>
<ellipse fill="white" stroke="black" cx="62.8492" cy="-80.5477" rx="14.7" ry="14.7"/>
<text text-anchor="middle" x="62.8492" y="-78.3477" font-family="Times,serif" font-size="9.00">3</text>
</g>
<!-- &#45;1&#45;&gt;3 -->
<g id="edge1" class="edge"><title>&#45;1&#45;&gt;3</title>
<path fill="none" stroke="red" stroke-width="0.240879" d="M43.9082,-131.353C46.5721,-124.349 50.5664,-113.846 54.2013,-104.288"/>
<polygon fill="red" stroke="red" stroke-width="0.240879" points="57.5049,-105.447 57.7882,-94.8558 50.9621,-102.959 57.5049,-105.447"/>
</g>
<!-- &#45;2 -->
<g id="node2" class="node"><title>&#45;2</title>
<polygon fill="lightgray" stroke="black" points="97.8492,-149.397 71.8492,-149.397 71.8492,-131.397 97.8492,-131.397 97.8492,-149.397"/>
<text text-anchor="middle" x="84.8492" y="-138.197" font-family="Times,serif" font-size="9.00">&#45;2</text>
</g>
<!-- &#45;2&#45;&gt;3 -->
<g id="edge2" class="edge"><title>&#45;2&#45;&gt;3</title>
<path fill="none" stroke="green" stroke-width="0.111841" d="M81.7902,-131.353C79.1264,-124.349 75.1321,-113.846 71.4972,-104.288"/>
<polygon fill="green" stroke="green" stroke-width="0.111841" points="74.7364,-102.959 67.9103,-94.8558 68.1936,-105.447 74.7364,-102.959"/>
</g>
<!-- 0 -->
<g id="node3" class="node"><title>0</title>
<ellipse fill="lightblue" stroke="black" cx="14.8492" cy="-14.8492" rx="14.7" ry="14.7"/>
<text text-anchor="middle" x="14.8492" y="-12.6492" font-family="Times,serif" font-size="9.00">0</text>
</g>
<!-- 1 -->
<g id="node4" class="node"><title>1</title>
<ellipse fill="lightblue" stroke="black" cx="62.8492" cy="-14.8492" rx="14.7" ry="14.7"/>
<text text-anchor="middle" x="62.8492" y="-12.6492" font-family="Times,serif" font-size="9.00">1</text>
</g>
<!-- 2 -->
<g id="node5" class="node"><title>2</title>
<ellipse fill="lightblue" stroke="black" cx="110.849" cy="-14.8492" rx="14.7" ry="14.7"/>
<text text-anchor="middle" x="110.849" y="-12.6492" font-family="Times,serif" font-size="9.00">2</text>
</g>
<!-- 3&#45;&gt;0 -->
<g id="edge3" class="edge"><title>3&#45;&gt;0</title>
<path fill="none" stroke="red" stroke-width="0.163837" d="M54.2678,-68.1597C47.3738,-59.011 37.5364,-45.9562 29.4138,-35.1772"/>
<polygon fill="red" stroke="red" stroke-width="0.163837" points="32.1698,-33.0187 23.3564,-27.1387 26.5793,-37.2314 32.1698,-33.0187"/>
</g>
<!-- 3&#45;&gt;1 -->
<g id="edge4" class="edge"><title>3&#45;&gt;1</title>
<path fill="none" stroke="red" stroke-width="0.190288" d="M62.8492,-65.411C62.8492,-57.9888 62.8492,-48.685 62.8492,-40.1488"/>
<polygon fill="red" stroke="red" stroke-width="0.190288" points="66.3493,-39.9464 62.8492,-29.9465 59.3493,-39.9465 66.3493,-39.9464"/>
</g>
<!-- 3&#45;&gt;2 -->
<g id="edge5" class="edge"><title>3&#45;&gt;2</title>
<path fill="none" stroke="red" stroke-width="0.118418" d="M71.4307,-68.1597C78.3247,-59.011 88.1621,-45.9562 96.2846,-35.1772"/>
<polygon fill="red" stroke="red" stroke-width="0.118418" points="99.1192,-37.2314 102.342,-27.1387 93.5287,-33.0187 99.1192,-37.2314"/>
</g>
</g>
</svg>
