<?xml version="1.0" encoding="utf-8" standalone="no"?>
<!DOCTYPE svg PUBLIC "-//W3C//DTD SVG 1.1//EN"
  "http://www.w3.org/Graphics/SVG/1.1/DTD/svg11.dtd">
<!-- Created with matplotlib (http://matplotlib.org/) -->
<svg height="345pt" version="1.1" viewBox="0 0 460 345" width="460pt" xmlns="http://www.w3.org/2000/svg" xmlns:xlink="http://www.w3.org/1999/xlink">
 <defs>
  <style type="text/css">
*{stroke-linecap:butt;stroke-linejoin:round;}
  </style>
 </defs>
 <g id="figure_1">
  <g id="patch_1">
   <path d="M 0 345.6 
L 460.8 345.6 
L 460.8 0 
L 0 0 
z
" style="fill:#ffffff;"/>
  </g>
  <g id="axes_1">
   <g id="patch_2">
    <path d="M 57.6 307.584 
L 414.72 307.584 
L 414.72 41.472 
L 57.6 41.472 
z
" style="fill:#ffffff;"/>
   </g>
   <g id="matplotlib.axis_1">
    <g id="xtick_1">
     <g id="line2d_1">
      <path clip-path="url(#pcb241c4315)" d="M 73.832727 307.584 
L 73.832727 41.472 
" style="fill:none;stroke:#b0b0b0;stroke-linecap:square;stroke-width:0.8;"/>
     </g>
     <g id="line2d_2">
      <defs>
       <path d="M 0 0 
L 0 3.5 
" id="m19a670c4af" style="stroke:#000000;stroke-width:0.8;"/>
      </defs>
      <g>
       <use style="stroke:#000000;stroke-width:0.8;" x="73.832727" xlink:href="#m19a670c4af" y="307.584"/>
      </g>
     </g>
     <g id="text_1">
      <!-- 0 -->
      <defs>
       <path d="M 31.78125 66.40625 
Q 24.171875 66.40625 20.328125 58.90625 
Q 16.5 51.421875 16.5 36.375 
Q 16.5 21.390625 20.328125 13.890625 
Q 24.171875 6.390625 31.78125 6.390625 
Q 39.453125 6.390625 43.28125 13.890625 
Q 47.125 21.390625 47.125 36.375 
Q 47.125 51.421875 43.28125 58.90625 
Q 39.453125 66.40625 31.78125 66.40625 
M 31.78125 74.21875 
Q 44.046875 74.21875 50.515625 64.515625 
Q 56.984375 54.828125 56.984375 36.375 
Q 56.984375 17.96875 50.515625 8.265625 
Q 44.046875 -1.421875 31.78125 -1.421875 
Q 19.53125 -1.421875 13.0625 8.265625 
Q 6.59375 17.96875 6.59375 36.375 
Q 6.59375 54.828125 13.0625 64.515625 
Q 19.53125 74.21875 31.78125 74.21875 
" id="DejaVuSans-30"/>
      </defs>
      <g transform="translate(70.651477 322.182437)scale(0.1 -0.1)">
       <use xlink:href="#DejaVuSans-30"/>
      </g>
     </g>
    </g>
    <g id="xtick_2">
     <g id="line2d_3">
      <path clip-path="url(#pcb241c4315)" d="M 138.828632 307.584 
L 138.828632 41.472 
" style="fill:none;stroke:#b0b0b0;stroke-linecap:square;stroke-width:0.8;"/>
     </g>
     <g id="line2d_4">
      <g>
       <use style="stroke:#000000;stroke-width:0.8;" x="138.828632" xlink:href="#m19a670c4af" y="307.584"/>
      </g>
     </g>
     <g id="text_2">
      <!-- 200 -->
      <defs>
       <path d="M 19.1875 8.296875 
L 53.609375 8.296875 
L 53.609375 0 
L 7.328125 0 
L 7.328125 8.296875 
Q 12.9375 14.109375 22.625 23.890625 
Q 32.328125 33.6875 34.8125 36.53125 
Q 39.546875 41.84375 41.421875 45.53125 
Q 43.3125 49.21875 43.3125 52.78125 
Q 43.3125 58.59375 39.234375 62.25 
Q 35.15625 65.921875 28.609375 65.921875 
Q 23.96875 65.921875 18.8125 64.3125 
Q 13.671875 62.703125 7.8125 59.421875 
L 7.8125 69.390625 
Q 13.765625 71.78125 18.9375 73 
Q 24.125 74.21875 28.421875 74.21875 
Q 39.75 74.21875 46.484375 68.546875 
Q 53.21875 62.890625 53.21875 53.421875 
Q 53.21875 48.921875 51.53125 44.890625 
Q 49.859375 40.875 45.40625 35.40625 
Q 44.1875 33.984375 37.640625 27.21875 
Q 31.109375 20.453125 19.1875 8.296875 
" id="DejaVuSans-32"/>
      </defs>
      <g transform="translate(129.284882 322.182437)scale(0.1 -0.1)">
       <use xlink:href="#DejaVuSans-32"/>
       <use x="63.623047" xlink:href="#DejaVuSans-30"/>
       <use x="127.246094" xlink:href="#DejaVuSans-30"/>
      </g>
     </g>
    </g>
    <g id="xtick_3">
     <g id="line2d_5">
      <path clip-path="url(#pcb241c4315)" d="M 203.824537 307.584 
L 203.824537 41.472 
" style="fill:none;stroke:#b0b0b0;stroke-linecap:square;stroke-width:0.8;"/>
     </g>
     <g id="line2d_6">
      <g>
       <use style="stroke:#000000;stroke-width:0.8;" x="203.824537" xlink:href="#m19a670c4af" y="307.584"/>
      </g>
     </g>
     <g id="text_3">
      <!-- 400 -->
      <defs>
       <path d="M 37.796875 64.3125 
L 12.890625 25.390625 
L 37.796875 25.390625 
z
M 35.203125 72.90625 
L 47.609375 72.90625 
L 47.609375 25.390625 
L 58.015625 25.390625 
L 58.015625 17.1875 
L 47.609375 17.1875 
L 47.609375 0 
L 37.796875 0 
L 37.796875 17.1875 
L 4.890625 17.1875 
L 4.890625 26.703125 
z
" id="DejaVuSans-34"/>
      </defs>
      <g transform="translate(194.280787 322.182437)scale(0.1 -0.1)">
       <use xlink:href="#DejaVuSans-34"/>
       <use x="63.623047" xlink:href="#DejaVuSans-30"/>
       <use x="127.246094" xlink:href="#DejaVuSans-30"/>
      </g>
     </g>
    </g>
    <g id="xtick_4">
     <g id="line2d_7">
      <path clip-path="url(#pcb241c4315)" d="M 268.820442 307.584 
L 268.820442 41.472 
" style="fill:none;stroke:#b0b0b0;stroke-linecap:square;stroke-width:0.8;"/>
     </g>
     <g id="line2d_8">
      <g>
       <use style="stroke:#000000;stroke-width:0.8;" x="268.820442" xlink:href="#m19a670c4af" y="307.584"/>
      </g>
     </g>
     <g id="text_4">
      <!-- 600 -->
      <defs>
       <path d="M 33.015625 40.375 
Q 26.375 40.375 22.484375 35.828125 
Q 18.609375 31.296875 18.609375 23.390625 
Q 18.609375 15.53125 22.484375 10.953125 
Q 26.375 6.390625 33.015625 6.390625 
Q 39.65625 6.390625 43.53125 10.953125 
Q 47.40625 15.53125 47.40625 23.390625 
Q 47.40625 31.296875 43.53125 35.828125 
Q 39.65625 40.375 33.015625 40.375 
M 52.59375 71.296875 
L 52.59375 62.3125 
Q 48.875 64.0625 45.09375 64.984375 
Q 41.3125 65.921875 37.59375 65.921875 
Q 27.828125 65.921875 22.671875 59.328125 
Q 17.53125 52.734375 16.796875 39.40625 
Q 19.671875 43.65625 24.015625 45.921875 
Q 28.375 48.1875 33.59375 48.1875 
Q 44.578125 48.1875 50.953125 41.515625 
Q 57.328125 34.859375 57.328125 23.390625 
Q 57.328125 12.15625 50.6875 5.359375 
Q 44.046875 -1.421875 33.015625 -1.421875 
Q 20.359375 -1.421875 13.671875 8.265625 
Q 6.984375 17.96875 6.984375 36.375 
Q 6.984375 53.65625 15.1875 63.9375 
Q 23.390625 74.21875 37.203125 74.21875 
Q 40.921875 74.21875 44.703125 73.484375 
Q 48.484375 72.75 52.59375 71.296875 
" id="DejaVuSans-36"/>
      </defs>
      <g transform="translate(259.276692 322.182437)scale(0.1 -0.1)">
       <use xlink:href="#DejaVuSans-36"/>
       <use x="63.623047" xlink:href="#DejaVuSans-30"/>
       <use x="127.246094" xlink:href="#DejaVuSans-30"/>
      </g>
     </g>
    </g>
    <g id="xtick_5">
     <g id="line2d_9">
      <path clip-path="url(#pcb241c4315)" d="M 333.816347 307.584 
L 333.816347 41.472 
" style="fill:none;stroke:#b0b0b0;stroke-linecap:square;stroke-width:0.8;"/>
     </g>
     <g id="line2d_10">
      <g>
       <use style="stroke:#000000;stroke-width:0.8;" x="333.816347" xlink:href="#m19a670c4af" y="307.584"/>
      </g>
     </g>
     <g id="text_5">
      <!-- 800 -->
      <defs>
       <path d="M 31.78125 34.625 
Q 24.75 34.625 20.71875 30.859375 
Q 16.703125 27.09375 16.703125 20.515625 
Q 16.703125 13.921875 20.71875 10.15625 
Q 24.75 6.390625 31.78125 6.390625 
Q 38.8125 6.390625 42.859375 10.171875 
Q 46.921875 13.96875 46.921875 20.515625 
Q 46.921875 27.09375 42.890625 30.859375 
Q 38.875 34.625 31.78125 34.625 
M 21.921875 38.8125 
Q 15.578125 40.375 12.03125 44.71875 
Q 8.5 49.078125 8.5 55.328125 
Q 8.5 64.0625 14.71875 69.140625 
Q 20.953125 74.21875 31.78125 74.21875 
Q 42.671875 74.21875 48.875 69.140625 
Q 55.078125 64.0625 55.078125 55.328125 
Q 55.078125 49.078125 51.53125 44.71875 
Q 48 40.375 41.703125 38.8125 
Q 48.828125 37.15625 52.796875 32.3125 
Q 56.78125 27.484375 56.78125 20.515625 
Q 56.78125 9.90625 50.3125 4.234375 
Q 43.84375 -1.421875 31.78125 -1.421875 
Q 19.734375 -1.421875 13.25 4.234375 
Q 6.78125 9.90625 6.78125 20.515625 
Q 6.78125 27.484375 10.78125 32.3125 
Q 14.796875 37.15625 21.921875 38.8125 
M 18.3125 54.390625 
Q 18.3125 48.734375 21.84375 45.5625 
Q 25.390625 42.390625 31.78125 42.390625 
Q 38.140625 42.390625 41.71875 45.5625 
Q 45.3125 48.734375 45.3125 54.390625 
Q 45.3125 60.0625 41.71875 63.234375 
Q 38.140625 66.40625 31.78125 66.40625 
Q 25.390625 66.40625 21.84375 63.234375 
Q 18.3125 60.0625 18.3125 54.390625 
" id="DejaVuSans-38"/>
      </defs>
      <g transform="translate(324.272597 322.182437)scale(0.1 -0.1)">
       <use xlink:href="#DejaVuSans-38"/>
       <use x="63.623047" xlink:href="#DejaVuSans-30"/>
       <use x="127.246094" xlink:href="#DejaVuSans-30"/>
      </g>
     </g>
    </g>
    <g id="xtick_6">
     <g id="line2d_11">
      <path clip-path="url(#pcb241c4315)" d="M 398.812252 307.584 
L 398.812252 41.472 
" style="fill:none;stroke:#b0b0b0;stroke-linecap:square;stroke-width:0.8;"/>
     </g>
     <g id="line2d_12">
      <g>
       <use style="stroke:#000000;stroke-width:0.8;" x="398.812252" xlink:href="#m19a670c4af" y="307.584"/>
      </g>
     </g>
     <g id="text_6">
      <!-- 1000 -->
      <defs>
       <path d="M 12.40625 8.296875 
L 28.515625 8.296875 
L 28.515625 63.921875 
L 10.984375 60.40625 
L 10.984375 69.390625 
L 28.421875 72.90625 
L 38.28125 72.90625 
L 38.28125 8.296875 
L 54.390625 8.296875 
L 54.390625 0 
L 12.40625 0 
z
" id="DejaVuSans-31"/>
      </defs>
      <g transform="translate(386.087252 322.182437)scale(0.1 -0.1)">
       <use xlink:href="#DejaVuSans-31"/>
       <use x="63.623047" xlink:href="#DejaVuSans-30"/>
       <use x="127.246094" xlink:href="#DejaVuSans-30"/>
       <use x="190.869141" xlink:href="#DejaVuSans-30"/>
      </g>
     </g>
    </g>
    <g id="text_7">
     <!-- Generations -->
     <defs>
      <path d="M 59.515625 10.40625 
L 59.515625 29.984375 
L 43.40625 29.984375 
L 43.40625 38.09375 
L 69.28125 38.09375 
L 69.28125 6.78125 
Q 63.578125 2.734375 56.6875 0.65625 
Q 49.8125 -1.421875 42 -1.421875 
Q 24.90625 -1.421875 15.25 8.5625 
Q 5.609375 18.5625 5.609375 36.375 
Q 5.609375 54.25 15.25 64.234375 
Q 24.90625 74.21875 42 74.21875 
Q 49.125 74.21875 55.546875 72.453125 
Q 61.96875 70.703125 67.390625 67.28125 
L 67.390625 56.78125 
Q 61.921875 61.421875 55.765625 63.765625 
Q 49.609375 66.109375 42.828125 66.109375 
Q 29.4375 66.109375 22.71875 58.640625 
Q 16.015625 51.171875 16.015625 36.375 
Q 16.015625 21.625 22.71875 14.15625 
Q 29.4375 6.6875 42.828125 6.6875 
Q 48.046875 6.6875 52.140625 7.59375 
Q 56.25 8.5 59.515625 10.40625 
" id="DejaVuSans-47"/>
      <path d="M 56.203125 29.59375 
L 56.203125 25.203125 
L 14.890625 25.203125 
Q 15.484375 15.921875 20.484375 11.0625 
Q 25.484375 6.203125 34.421875 6.203125 
Q 39.59375 6.203125 44.453125 7.46875 
Q 49.3125 8.734375 54.109375 11.28125 
L 54.109375 2.78125 
Q 49.265625 0.734375 44.1875 -0.34375 
Q 39.109375 -1.421875 33.890625 -1.421875 
Q 20.796875 -1.421875 13.15625 6.1875 
Q 5.515625 13.8125 5.515625 26.8125 
Q 5.515625 40.234375 12.765625 48.109375 
Q 20.015625 56 32.328125 56 
Q 43.359375 56 49.78125 48.890625 
Q 56.203125 41.796875 56.203125 29.59375 
M 47.21875 32.234375 
Q 47.125 39.59375 43.09375 43.984375 
Q 39.0625 48.390625 32.421875 48.390625 
Q 24.90625 48.390625 20.390625 44.140625 
Q 15.875 39.890625 15.1875 32.171875 
z
" id="DejaVuSans-65"/>
      <path d="M 54.890625 33.015625 
L 54.890625 0 
L 45.90625 0 
L 45.90625 32.71875 
Q 45.90625 40.484375 42.875 44.328125 
Q 39.84375 48.1875 33.796875 48.1875 
Q 26.515625 48.1875 22.3125 43.546875 
Q 18.109375 38.921875 18.109375 30.90625 
L 18.109375 0 
L 9.078125 0 
L 9.078125 54.6875 
L 18.109375 54.6875 
L 18.109375 46.1875 
Q 21.34375 51.125 25.703125 53.5625 
Q 30.078125 56 35.796875 56 
Q 45.21875 56 50.046875 50.171875 
Q 54.890625 44.34375 54.890625 33.015625 
" id="DejaVuSans-6e"/>
      <path d="M 41.109375 46.296875 
Q 39.59375 47.171875 37.8125 47.578125 
Q 36.03125 48 33.890625 48 
Q 26.265625 48 22.1875 43.046875 
Q 18.109375 38.09375 18.109375 28.8125 
L 18.109375 0 
L 9.078125 0 
L 9.078125 54.6875 
L 18.109375 54.6875 
L 18.109375 46.1875 
Q 20.953125 51.171875 25.484375 53.578125 
Q 30.03125 56 36.53125 56 
Q 37.453125 56 38.578125 55.875 
Q 39.703125 55.765625 41.0625 55.515625 
z
" id="DejaVuSans-72"/>
      <path d="M 34.28125 27.484375 
Q 23.390625 27.484375 19.1875 25 
Q 14.984375 22.515625 14.984375 16.5 
Q 14.984375 11.71875 18.140625 8.90625 
Q 21.296875 6.109375 26.703125 6.109375 
Q 34.1875 6.109375 38.703125 11.40625 
Q 43.21875 16.703125 43.21875 25.484375 
L 43.21875 27.484375 
z
M 52.203125 31.203125 
L 52.203125 0 
L 43.21875 0 
L 43.21875 8.296875 
Q 40.140625 3.328125 35.546875 0.953125 
Q 30.953125 -1.421875 24.3125 -1.421875 
Q 15.921875 -1.421875 10.953125 3.296875 
Q 6 8.015625 6 15.921875 
Q 6 25.140625 12.171875 29.828125 
Q 18.359375 34.515625 30.609375 34.515625 
L 43.21875 34.515625 
L 43.21875 35.40625 
Q 43.21875 41.609375 39.140625 45 
Q 35.0625 48.390625 27.6875 48.390625 
Q 23 48.390625 18.546875 47.265625 
Q 14.109375 46.140625 10.015625 43.890625 
L 10.015625 52.203125 
Q 14.9375 54.109375 19.578125 55.046875 
Q 24.21875 56 28.609375 56 
Q 40.484375 56 46.34375 49.84375 
Q 52.203125 43.703125 52.203125 31.203125 
" id="DejaVuSans-61"/>
      <path d="M 18.3125 70.21875 
L 18.3125 54.6875 
L 36.8125 54.6875 
L 36.8125 47.703125 
L 18.3125 47.703125 
L 18.3125 18.015625 
Q 18.3125 11.328125 20.140625 9.421875 
Q 21.96875 7.515625 27.59375 7.515625 
L 36.8125 7.515625 
L 36.8125 0 
L 27.59375 0 
Q 17.1875 0 13.234375 3.875 
Q 9.28125 7.765625 9.28125 18.015625 
L 9.28125 47.703125 
L 2.6875 47.703125 
L 2.6875 54.6875 
L 9.28125 54.6875 
L 9.28125 70.21875 
z
" id="DejaVuSans-74"/>
      <path d="M 9.421875 54.6875 
L 18.40625 54.6875 
L 18.40625 0 
L 9.421875 0 
z
M 9.421875 75.984375 
L 18.40625 75.984375 
L 18.40625 64.59375 
L 9.421875 64.59375 
z
" id="DejaVuSans-69"/>
      <path d="M 30.609375 48.390625 
Q 23.390625 48.390625 19.1875 42.75 
Q 14.984375 37.109375 14.984375 27.296875 
Q 14.984375 17.484375 19.15625 11.84375 
Q 23.34375 6.203125 30.609375 6.203125 
Q 37.796875 6.203125 41.984375 11.859375 
Q 46.1875 17.53125 46.1875 27.296875 
Q 46.1875 37.015625 41.984375 42.703125 
Q 37.796875 48.390625 30.609375 48.390625 
M 30.609375 56 
Q 42.328125 56 49.015625 48.375 
Q 55.71875 40.765625 55.71875 27.296875 
Q 55.71875 13.875 49.015625 6.21875 
Q 42.328125 -1.421875 30.609375 -1.421875 
Q 18.84375 -1.421875 12.171875 6.21875 
Q 5.515625 13.875 5.515625 27.296875 
Q 5.515625 40.765625 12.171875 48.375 
Q 18.84375 56 30.609375 56 
" id="DejaVuSans-6f"/>
      <path d="M 44.28125 53.078125 
L 44.28125 44.578125 
Q 40.484375 46.53125 36.375 47.5 
Q 32.28125 48.484375 27.875 48.484375 
Q 21.1875 48.484375 17.84375 46.4375 
Q 14.5 44.390625 14.5 40.28125 
Q 14.5 37.15625 16.890625 35.375 
Q 19.28125 33.59375 26.515625 31.984375 
L 29.59375 31.296875 
Q 39.15625 29.25 43.1875 25.515625 
Q 47.21875 21.78125 47.21875 15.09375 
Q 47.21875 7.46875 41.1875 3.015625 
Q 35.15625 -1.421875 24.609375 -1.421875 
Q 20.21875 -1.421875 15.453125 -0.5625 
Q 10.6875 0.296875 5.421875 2 
L 5.421875 11.28125 
Q 10.40625 8.6875 15.234375 7.390625 
Q 20.0625 6.109375 24.8125 6.109375 
Q 31.15625 6.109375 34.5625 8.28125 
Q 37.984375 10.453125 37.984375 14.40625 
Q 37.984375 18.0625 35.515625 20.015625 
Q 33.0625 21.96875 24.703125 23.78125 
L 21.578125 24.515625 
Q 13.234375 26.265625 9.515625 29.90625 
Q 5.8125 33.546875 5.8125 39.890625 
Q 5.8125 47.609375 11.28125 51.796875 
Q 16.75 56 26.8125 56 
Q 31.78125 56 36.171875 55.265625 
Q 40.578125 54.546875 44.28125 53.078125 
" id="DejaVuSans-73"/>
     </defs>
     <g transform="translate(205.662344 335.860562)scale(0.1 -0.1)">
      <use xlink:href="#DejaVuSans-47"/>
      <use x="77.490234" xlink:href="#DejaVuSans-65"/>
      <use x="139.013672" xlink:href="#DejaVuSans-6e"/>
      <use x="202.392578" xlink:href="#DejaVuSans-65"/>
      <use x="263.916016" xlink:href="#DejaVuSans-72"/>
      <use x="305.029297" xlink:href="#DejaVuSans-61"/>
      <use x="366.308594" xlink:href="#DejaVuSans-74"/>
      <use x="405.517578" xlink:href="#DejaVuSans-69"/>
      <use x="433.300781" xlink:href="#DejaVuSans-6f"/>
      <use x="494.482422" xlink:href="#DejaVuSans-6e"/>
      <use x="557.861328" xlink:href="#DejaVuSans-73"/>
     </g>
    </g>
   </g>
   <g id="matplotlib.axis_2">
    <g id="ytick_1">
     <g id="line2d_13">
      <path clip-path="url(#pcb241c4315)" d="M 57.6 304.262301 
L 414.72 304.262301 
" style="fill:none;stroke:#b0b0b0;stroke-linecap:square;stroke-width:0.8;"/>
     </g>
     <g id="line2d_14">
      <defs>
       <path d="M 0 0 
L -3.5 0 
" id="ma5bbad4182" style="stroke:#000000;stroke-width:0.8;"/>
      </defs>
      <g>
       <use style="stroke:#000000;stroke-width:0.8;" x="57.6" xlink:href="#ma5bbad4182" y="304.262301"/>
      </g>
     </g>
     <g id="text_8">
      <!-- 9.00 -->
      <defs>
       <path d="M 10.984375 1.515625 
L 10.984375 10.5 
Q 14.703125 8.734375 18.5 7.8125 
Q 22.3125 6.890625 25.984375 6.890625 
Q 35.75 6.890625 40.890625 13.453125 
Q 46.046875 20.015625 46.78125 33.40625 
Q 43.953125 29.203125 39.59375 26.953125 
Q 35.25 24.703125 29.984375 24.703125 
Q 19.046875 24.703125 12.671875 31.3125 
Q 6.296875 37.9375 6.296875 49.421875 
Q 6.296875 60.640625 12.9375 67.421875 
Q 19.578125 74.21875 30.609375 74.21875 
Q 43.265625 74.21875 49.921875 64.515625 
Q 56.59375 54.828125 56.59375 36.375 
Q 56.59375 19.140625 48.40625 8.859375 
Q 40.234375 -1.421875 26.421875 -1.421875 
Q 22.703125 -1.421875 18.890625 -0.6875 
Q 15.09375 0.046875 10.984375 1.515625 
M 30.609375 32.421875 
Q 37.25 32.421875 41.125 36.953125 
Q 45.015625 41.5 45.015625 49.421875 
Q 45.015625 57.28125 41.125 61.84375 
Q 37.25 66.40625 30.609375 66.40625 
Q 23.96875 66.40625 20.09375 61.84375 
Q 16.21875 57.28125 16.21875 49.421875 
Q 16.21875 41.5 20.09375 36.953125 
Q 23.96875 32.421875 30.609375 32.421875 
" id="DejaVuSans-39"/>
       <path d="M 10.6875 12.40625 
L 21 12.40625 
L 21 0 
L 10.6875 0 
z
" id="DejaVuSans-2e"/>
      </defs>
      <g transform="translate(28.334375 308.061519)scale(0.1 -0.1)">
       <use xlink:href="#DejaVuSans-39"/>
       <use x="63.623047" xlink:href="#DejaVuSans-2e"/>
       <use x="95.410156" xlink:href="#DejaVuSans-30"/>
       <use x="159.033203" xlink:href="#DejaVuSans-30"/>
      </g>
     </g>
    </g>
    <g id="ytick_2">
     <g id="line2d_15">
      <path clip-path="url(#pcb241c4315)" d="M 57.6 272.925513 
L 414.72 272.925513 
" style="fill:none;stroke:#b0b0b0;stroke-linecap:square;stroke-width:0.8;"/>
     </g>
     <g id="line2d_16">
      <g>
       <use style="stroke:#000000;stroke-width:0.8;" x="57.6" xlink:href="#ma5bbad4182" y="272.925513"/>
      </g>
     </g>
     <g id="text_9">
      <!-- 9.25 -->
      <defs>
       <path d="M 10.796875 72.90625 
L 49.515625 72.90625 
L 49.515625 64.59375 
L 19.828125 64.59375 
L 19.828125 46.734375 
Q 21.96875 47.46875 24.109375 47.828125 
Q 26.265625 48.1875 28.421875 48.1875 
Q 40.625 48.1875 47.75 41.5 
Q 54.890625 34.8125 54.890625 23.390625 
Q 54.890625 11.625 47.5625 5.09375 
Q 40.234375 -1.421875 26.90625 -1.421875 
Q 22.3125 -1.421875 17.546875 -0.640625 
Q 12.796875 0.140625 7.71875 1.703125 
L 7.71875 11.625 
Q 12.109375 9.234375 16.796875 8.0625 
Q 21.484375 6.890625 26.703125 6.890625 
Q 35.15625 6.890625 40.078125 11.328125 
Q 45.015625 15.765625 45.015625 23.390625 
Q 45.015625 31 40.078125 35.4375 
Q 35.15625 39.890625 26.703125 39.890625 
Q 22.75 39.890625 18.8125 39.015625 
Q 14.890625 38.140625 10.796875 36.28125 
z
" id="DejaVuSans-35"/>
      </defs>
      <g transform="translate(28.334375 276.724732)scale(0.1 -0.1)">
       <use xlink:href="#DejaVuSans-39"/>
       <use x="63.623047" xlink:href="#DejaVuSans-2e"/>
       <use x="95.410156" xlink:href="#DejaVuSans-32"/>
       <use x="159.033203" xlink:href="#DejaVuSans-35"/>
      </g>
     </g>
    </g>
    <g id="ytick_3">
     <g id="line2d_17">
      <path clip-path="url(#pcb241c4315)" d="M 57.6 241.588725 
L 414.72 241.588725 
" style="fill:none;stroke:#b0b0b0;stroke-linecap:square;stroke-width:0.8;"/>
     </g>
     <g id="line2d_18">
      <g>
       <use style="stroke:#000000;stroke-width:0.8;" x="57.6" xlink:href="#ma5bbad4182" y="241.588725"/>
      </g>
     </g>
     <g id="text_10">
      <!-- 9.50 -->
      <g transform="translate(28.334375 245.387944)scale(0.1 -0.1)">
       <use xlink:href="#DejaVuSans-39"/>
       <use x="63.623047" xlink:href="#DejaVuSans-2e"/>
       <use x="95.410156" xlink:href="#DejaVuSans-35"/>
       <use x="159.033203" xlink:href="#DejaVuSans-30"/>
      </g>
     </g>
    </g>
    <g id="ytick_4">
     <g id="line2d_19">
      <path clip-path="url(#pcb241c4315)" d="M 57.6 210.251938 
L 414.72 210.251938 
" style="fill:none;stroke:#b0b0b0;stroke-linecap:square;stroke-width:0.8;"/>
     </g>
     <g id="line2d_20">
      <g>
       <use style="stroke:#000000;stroke-width:0.8;" x="57.6" xlink:href="#ma5bbad4182" y="210.251938"/>
      </g>
     </g>
     <g id="text_11">
      <!-- 9.75 -->
      <defs>
       <path d="M 8.203125 72.90625 
L 55.078125 72.90625 
L 55.078125 68.703125 
L 28.609375 0 
L 18.3125 0 
L 43.21875 64.59375 
L 8.203125 64.59375 
z
" id="DejaVuSans-37"/>
      </defs>
      <g transform="translate(28.334375 214.051157)scale(0.1 -0.1)">
       <use xlink:href="#DejaVuSans-39"/>
       <use x="63.623047" xlink:href="#DejaVuSans-2e"/>
       <use x="95.410156" xlink:href="#DejaVuSans-37"/>
       <use x="159.033203" xlink:href="#DejaVuSans-35"/>
      </g>
     </g>
    </g>
    <g id="ytick_5">
     <g id="line2d_21">
      <path clip-path="url(#pcb241c4315)" d="M 57.6 178.91515 
L 414.72 178.91515 
" style="fill:none;stroke:#b0b0b0;stroke-linecap:square;stroke-width:0.8;"/>
     </g>
     <g id="line2d_22">
      <g>
       <use style="stroke:#000000;stroke-width:0.8;" x="57.6" xlink:href="#ma5bbad4182" y="178.91515"/>
      </g>
     </g>
     <g id="text_12">
      <!-- 10.00 -->
      <g transform="translate(21.971875 182.714369)scale(0.1 -0.1)">
       <use xlink:href="#DejaVuSans-31"/>
       <use x="63.623047" xlink:href="#DejaVuSans-30"/>
       <use x="127.246094" xlink:href="#DejaVuSans-2e"/>
       <use x="159.033203" xlink:href="#DejaVuSans-30"/>
       <use x="222.65625" xlink:href="#DejaVuSans-30"/>
      </g>
     </g>
    </g>
    <g id="ytick_6">
     <g id="line2d_23">
      <path clip-path="url(#pcb241c4315)" d="M 57.6 147.578363 
L 414.72 147.578363 
" style="fill:none;stroke:#b0b0b0;stroke-linecap:square;stroke-width:0.8;"/>
     </g>
     <g id="line2d_24">
      <g>
       <use style="stroke:#000000;stroke-width:0.8;" x="57.6" xlink:href="#ma5bbad4182" y="147.578363"/>
      </g>
     </g>
     <g id="text_13">
      <!-- 10.25 -->
      <g transform="translate(21.971875 151.377581)scale(0.1 -0.1)">
       <use xlink:href="#DejaVuSans-31"/>
       <use x="63.623047" xlink:href="#DejaVuSans-30"/>
       <use x="127.246094" xlink:href="#DejaVuSans-2e"/>
       <use x="159.033203" xlink:href="#DejaVuSans-32"/>
       <use x="222.65625" xlink:href="#DejaVuSans-35"/>
      </g>
     </g>
    </g>
    <g id="ytick_7">
     <g id="line2d_25">
      <path clip-path="url(#pcb241c4315)" d="M 57.6 116.241575 
L 414.72 116.241575 
" style="fill:none;stroke:#b0b0b0;stroke-linecap:square;stroke-width:0.8;"/>
     </g>
     <g id="line2d_26">
      <g>
       <use style="stroke:#000000;stroke-width:0.8;" x="57.6" xlink:href="#ma5bbad4182" y="116.241575"/>
      </g>
     </g>
     <g id="text_14">
      <!-- 10.50 -->
      <g transform="translate(21.971875 120.040794)scale(0.1 -0.1)">
       <use xlink:href="#DejaVuSans-31"/>
       <use x="63.623047" xlink:href="#DejaVuSans-30"/>
       <use x="127.246094" xlink:href="#DejaVuSans-2e"/>
       <use x="159.033203" xlink:href="#DejaVuSans-35"/>
       <use x="222.65625" xlink:href="#DejaVuSans-30"/>
      </g>
     </g>
    </g>
    <g id="ytick_8">
     <g id="line2d_27">
      <path clip-path="url(#pcb241c4315)" d="M 57.6 84.904788 
L 414.72 84.904788 
" style="fill:none;stroke:#b0b0b0;stroke-linecap:square;stroke-width:0.8;"/>
     </g>
     <g id="line2d_28">
      <g>
       <use style="stroke:#000000;stroke-width:0.8;" x="57.6" xlink:href="#ma5bbad4182" y="84.904788"/>
      </g>
     </g>
     <g id="text_15">
      <!-- 10.75 -->
      <g transform="translate(21.971875 88.704006)scale(0.1 -0.1)">
       <use xlink:href="#DejaVuSans-31"/>
       <use x="63.623047" xlink:href="#DejaVuSans-30"/>
       <use x="127.246094" xlink:href="#DejaVuSans-2e"/>
       <use x="159.033203" xlink:href="#DejaVuSans-37"/>
       <use x="222.65625" xlink:href="#DejaVuSans-35"/>
      </g>
     </g>
    </g>
    <g id="ytick_9">
     <g id="line2d_29">
      <path clip-path="url(#pcb241c4315)" d="M 57.6 53.568 
L 414.72 53.568 
" style="fill:none;stroke:#b0b0b0;stroke-linecap:square;stroke-width:0.8;"/>
     </g>
     <g id="line2d_30">
      <g>
       <use style="stroke:#000000;stroke-width:0.8;" x="57.6" xlink:href="#ma5bbad4182" y="53.568"/>
      </g>
     </g>
     <g id="text_16">
      <!-- 11.00 -->
      <g transform="translate(21.971875 57.367219)scale(0.1 -0.1)">
       <use xlink:href="#DejaVuSans-31"/>
       <use x="63.623047" xlink:href="#DejaVuSans-31"/>
       <use x="127.246094" xlink:href="#DejaVuSans-2e"/>
       <use x="159.033203" xlink:href="#DejaVuSans-30"/>
       <use x="222.65625" xlink:href="#DejaVuSans-30"/>
      </g>
     </g>
    </g>
    <g id="text_17">
     <!-- Fitness -->
     <defs>
      <path d="M 9.8125 72.90625 
L 51.703125 72.90625 
L 51.703125 64.59375 
L 19.671875 64.59375 
L 19.671875 43.109375 
L 48.578125 43.109375 
L 48.578125 34.8125 
L 19.671875 34.8125 
L 19.671875 0 
L 9.8125 0 
z
" id="DejaVuSans-46"/>
     </defs>
     <g transform="translate(15.892187 192.202219)rotate(-90)scale(0.1 -0.1)">
      <use xlink:href="#DejaVuSans-46"/>
      <use x="57.410156" xlink:href="#DejaVuSans-69"/>
      <use x="85.193359" xlink:href="#DejaVuSans-74"/>
      <use x="124.402344" xlink:href="#DejaVuSans-6e"/>
      <use x="187.78125" xlink:href="#DejaVuSans-65"/>
      <use x="249.304688" xlink:href="#DejaVuSans-73"/>
      <use x="301.404297" xlink:href="#DejaVuSans-73"/>
     </g>
    </g>
   </g>
   <g id="line2d_31">
    <path clip-path="url(#pcb241c4315)" d="M 73.832727 249.109554 
L 74.157707 260.390798 
L 74.482686 260.390798 
L 74.807666 259.137326 
L 75.132645 256.630383 
L 75.457625 274.178984 
L 75.782604 272.925513 
L 76.107584 235.321368 
L 76.432563 260.390798 
L 76.757543 265.404684 
L 77.082523 254.12344 
L 77.407502 269.165098 
L 77.732482 254.12344 
L 78.057461 249.109554 
L 78.382441 246.602611 
L 78.70742 257.883855 
L 79.0324 250.363026 
L 79.357379 252.869969 
L 79.682359 244.095668 
L 80.007338 251.616497 
L 80.332318 266.658155 
L 80.657297 267.911627 
L 80.982277 247.856083 
L 81.307256 257.883855 
L 81.632236 280.446342 
L 81.957215 247.856083 
L 82.282195 257.883855 
L 82.607174 250.363026 
L 82.932154 251.616497 
L 83.907093 266.658155 
L 84.232072 252.869969 
L 84.882031 276.685927 
L 85.207011 245.34914 
L 85.85697 266.658155 
L 86.181949 270.41857 
L 86.506929 256.630383 
L 86.831908 256.630383 
L 87.156888 249.109554 
L 87.481867 265.404684 
L 87.806847 271.672041 
L 88.131826 282.953285 
L 88.456806 270.41857 
L 88.781785 264.151212 
L 89.106765 254.12344 
L 89.431744 266.658155 
L 89.756724 249.109554 
L 90.081704 272.925513 
L 90.406683 275.432456 
L 90.731663 252.869969 
L 91.056642 282.953285 
L 91.381622 262.897741 
L 91.706601 259.137326 
L 92.031581 271.672041 
L 92.35656 261.644269 
L 92.68154 264.151212 
L 93.006519 260.390798 
L 93.656478 260.390798 
L 93.981458 274.178984 
L 94.306437 250.363026 
L 94.956396 264.151212 
L 95.281376 255.376912 
L 95.606355 274.178984 
L 95.931335 266.658155 
L 96.256314 247.856083 
L 96.581294 249.109554 
L 96.906274 266.658155 
L 97.231253 261.644269 
L 97.556233 245.34914 
L 98.206192 267.911627 
L 98.531171 240.335254 
L 99.18113 264.151212 
L 99.50611 282.953285 
L 99.831089 260.390798 
L 100.156069 254.12344 
L 100.481048 259.137326 
L 101.131007 274.178984 
L 101.455987 265.404684 
L 101.780966 260.390798 
L 102.105946 266.658155 
L 102.755905 245.34914 
L 103.080885 287.967171 
L 103.730844 251.616497 
L 104.055823 250.363026 
L 104.380803 272.925513 
L 104.705782 254.12344 
L 105.030762 271.672041 
L 105.355741 256.630383 
L 105.680721 259.137326 
L 106.0057 270.41857 
L 106.33068 260.390798 
L 106.655659 271.672041 
L 106.980639 274.178984 
L 107.305618 266.658155 
L 107.630598 262.897741 
L 107.955577 275.432456 
L 108.280557 244.095668 
L 108.605536 240.335254 
L 108.930516 274.178984 
L 109.255495 262.897741 
L 109.580475 262.897741 
L 109.905455 272.925513 
L 110.230434 272.925513 
L 110.555414 257.883855 
L 110.880393 259.137326 
L 111.205373 257.883855 
L 111.530352 246.602611 
L 111.855332 277.939399 
L 112.180311 249.109554 
L 112.505291 255.376912 
L 113.15525 276.685927 
L 113.480229 275.432456 
L 113.805209 245.34914 
L 114.130188 257.883855 
L 114.455168 257.883855 
L 114.780147 259.137326 
L 115.105127 251.616497 
L 115.430106 269.165098 
L 115.755086 256.630383 
L 116.080066 267.911627 
L 116.405045 252.869969 
L 116.730025 260.390798 
L 117.055004 252.869969 
L 117.379984 254.12344 
L 117.704963 254.12344 
L 118.029943 242.842197 
L 118.354922 239.081782 
L 118.679902 271.672041 
L 119.004881 259.137326 
L 119.329861 269.165098 
L 119.65484 267.911627 
L 119.97982 265.404684 
L 120.304799 245.34914 
L 120.629779 261.644269 
L 120.954758 254.12344 
L 121.279738 279.19287 
L 121.604717 256.630383 
L 121.929697 262.897741 
L 122.254676 252.869969 
L 122.579656 246.602611 
L 123.229615 267.911627 
L 123.554595 257.883855 
L 123.879574 256.630383 
L 124.204554 277.939399 
L 124.529533 262.897741 
L 124.854513 259.137326 
L 125.179492 249.109554 
L 125.504472 260.390798 
L 125.829451 254.12344 
L 126.154431 272.925513 
L 126.47941 262.897741 
L 126.80439 277.939399 
L 127.129369 265.404684 
L 127.454349 265.404684 
L 127.779328 266.658155 
L 128.104308 280.446342 
L 128.429287 262.897741 
L 128.754267 262.897741 
L 129.079247 255.376912 
L 129.404226 255.376912 
L 129.729206 244.095668 
L 130.054185 247.856083 
L 130.379165 260.390798 
L 130.704144 254.12344 
L 131.029124 244.095668 
L 131.354103 257.883855 
L 131.679083 257.883855 
L 132.004062 266.658155 
L 132.329042 260.390798 
L 132.979001 269.165098 
L 133.30398 239.081782 
L 133.62896 232.814425 
L 133.953939 265.404684 
L 134.603898 246.602611 
L 134.928878 246.602611 
L 135.253857 260.390798 
L 135.578837 265.404684 
L 135.903817 250.363026 
L 136.228796 270.41857 
L 136.878755 251.616497 
L 137.528714 261.644269 
L 138.178673 252.869969 
L 138.503653 261.644269 
L 138.828632 250.363026 
L 139.153612 251.616497 
L 139.478591 264.151212 
L 139.803571 265.404684 
L 140.12855 244.095668 
L 140.45353 267.911627 
L 140.778509 264.151212 
L 141.103489 266.658155 
L 141.428468 267.911627 
L 141.753448 261.644269 
L 142.078428 266.658155 
L 142.403407 262.897741 
L 142.728387 247.856083 
L 143.053366 265.404684 
L 143.378346 256.630383 
L 143.703325 269.165098 
L 144.028305 271.672041 
L 144.353284 260.390798 
L 144.678264 265.404684 
L 145.003243 251.616497 
L 145.328223 254.12344 
L 145.653202 269.165098 
L 145.978182 271.672041 
L 146.303161 271.672041 
L 146.628141 267.911627 
L 146.95312 255.376912 
L 147.2781 256.630383 
L 147.603079 262.897741 
L 147.928059 261.644269 
L 148.253038 266.658155 
L 148.578018 259.137326 
L 148.902998 259.137326 
L 149.227977 251.616497 
L 149.552957 276.685927 
L 149.877936 265.404684 
L 150.202916 262.897741 
L 150.527895 246.602611 
L 150.852875 247.856083 
L 151.177854 275.432456 
L 151.502834 270.41857 
L 151.827813 252.869969 
L 152.152793 247.856083 
L 152.477772 275.432456 
L 152.802752 246.602611 
L 153.127731 266.658155 
L 153.452711 260.390798 
L 153.77769 257.883855 
L 154.10267 246.602611 
L 154.427649 276.685927 
L 154.752629 255.376912 
L 155.077609 272.925513 
L 155.402588 260.390798 
L 155.727568 274.178984 
L 156.052547 269.165098 
L 156.377527 274.178984 
L 157.027486 255.376912 
L 157.352465 265.404684 
L 158.002424 232.814425 
L 158.327404 267.911627 
L 158.652383 277.939399 
L 158.977363 256.630383 
L 159.302342 271.672041 
L 159.627322 257.883855 
L 160.60226 272.925513 
L 160.92724 266.658155 
L 161.252219 255.376912 
L 161.577199 265.404684 
L 162.227158 240.335254 
L 162.552138 274.178984 
L 162.877117 260.390798 
L 163.202097 254.12344 
L 163.527076 266.658155 
L 163.852056 257.883855 
L 164.177035 256.630383 
L 164.502015 259.137326 
L 164.826994 262.897741 
L 165.476953 262.897741 
L 165.801933 246.602611 
L 166.451892 264.151212 
L 166.776871 262.897741 
L 167.101851 266.658155 
L 167.42683 265.404684 
L 167.75181 267.911627 
L 168.07679 265.404684 
L 168.401769 254.12344 
L 168.726749 267.911627 
L 169.051728 255.376912 
L 169.376708 271.672041 
L 169.701687 252.869969 
L 170.026667 266.658155 
L 170.351646 247.856083 
L 170.676626 249.109554 
L 171.326585 259.137326 
L 171.651564 254.12344 
L 172.301523 269.165098 
L 172.626503 264.151212 
L 172.951482 255.376912 
L 173.276462 252.869969 
L 173.601441 262.897741 
L 173.926421 262.897741 
L 174.2514 247.856083 
L 174.57638 242.842197 
L 174.90136 254.12344 
L 175.226339 260.390798 
L 175.551319 271.672041 
L 175.876298 245.34914 
L 176.201278 267.911627 
L 176.526257 249.109554 
L 176.851237 256.630383 
L 177.176216 257.883855 
L 177.501196 252.869969 
L 177.826175 265.404684 
L 178.151155 255.376912 
L 178.476134 254.12344 
L 178.801114 259.137326 
L 179.126093 247.856083 
L 179.451073 277.939399 
L 179.776052 250.363026 
L 180.101032 249.109554 
L 180.426011 254.12344 
L 180.750991 266.658155 
L 181.075971 265.404684 
L 181.40095 269.165098 
L 181.72593 259.137326 
L 182.375889 267.911627 
L 182.700868 261.644269 
L 183.025848 249.109554 
L 183.350827 274.178984 
L 183.675807 271.672041 
L 184.000786 280.446342 
L 184.325766 252.869969 
L 184.650745 275.432456 
L 184.975725 266.658155 
L 185.300704 261.644269 
L 185.625684 262.897741 
L 185.950663 245.34914 
L 186.275643 265.404684 
L 186.600622 245.34914 
L 186.925602 272.925513 
L 187.250581 245.34914 
L 187.575561 262.897741 
L 187.900541 261.644269 
L 188.5505 250.363026 
L 188.875479 261.644269 
L 189.200459 265.404684 
L 189.525438 256.630383 
L 190.175397 269.165098 
L 190.500377 247.856083 
L 190.825356 249.109554 
L 191.150336 249.109554 
L 191.475315 274.178984 
L 191.800295 266.658155 
L 192.125274 250.363026 
L 192.450254 262.897741 
L 192.775233 260.390798 
L 193.100213 270.41857 
L 193.425192 255.376912 
L 193.750172 261.644269 
L 194.075152 264.151212 
L 194.400131 237.828311 
L 195.05009 276.685927 
L 195.37507 236.574839 
L 195.700049 262.897741 
L 196.025029 260.390798 
L 196.350008 244.095668 
L 196.674988 251.616497 
L 196.999967 265.404684 
L 197.324947 255.376912 
L 197.649926 255.376912 
L 197.974906 256.630383 
L 198.299885 255.376912 
L 198.624865 272.925513 
L 198.949844 257.883855 
L 199.274824 277.939399 
L 200.249762 242.842197 
L 200.574742 269.165098 
L 201.549681 251.616497 
L 201.87466 266.658155 
L 202.19964 270.41857 
L 202.524619 249.109554 
L 202.849599 257.883855 
L 203.174578 274.178984 
L 203.499558 264.151212 
L 203.824537 250.363026 
L 204.149517 261.644269 
L 204.474496 257.883855 
L 204.799476 262.897741 
L 205.124455 256.630383 
L 205.449435 259.137326 
L 206.099394 251.616497 
L 206.424373 262.897741 
L 206.749353 254.12344 
L 207.074333 252.869969 
L 207.399312 259.137326 
L 207.724292 250.363026 
L 208.049271 254.12344 
L 208.374251 277.939399 
L 208.69923 245.34914 
L 209.02421 250.363026 
L 209.349189 246.602611 
L 209.674169 261.644269 
L 209.999148 255.376912 
L 210.324128 262.897741 
L 210.649107 259.137326 
L 210.974087 249.109554 
L 211.299066 249.109554 
L 211.624046 271.672041 
L 211.949025 249.109554 
L 212.274005 249.109554 
L 212.598984 262.897741 
L 212.923964 252.869969 
L 213.248943 237.828311 
L 213.573923 267.911627 
L 213.898903 261.644269 
L 214.223882 246.602611 
L 214.548862 262.897741 
L 214.873841 255.376912 
L 215.198821 259.137326 
L 215.5238 259.137326 
L 215.84878 266.658155 
L 216.173759 252.869969 
L 216.498739 261.644269 
L 216.823718 262.897741 
L 217.148698 256.630383 
L 217.473677 286.713699 
L 217.798657 244.095668 
L 218.123636 259.137326 
L 218.448616 242.842197 
L 218.773595 267.911627 
L 219.098575 271.672041 
L 219.423554 257.883855 
L 219.748534 259.137326 
L 220.073514 242.842197 
L 220.398493 259.137326 
L 220.723473 240.335254 
L 221.048452 264.151212 
L 221.373432 252.869969 
L 221.698411 261.644269 
L 222.023391 260.390798 
L 222.67335 250.363026 
L 222.998329 260.390798 
L 223.323309 241.588725 
L 223.648288 271.672041 
L 223.973268 265.404684 
L 224.298247 255.376912 
L 224.623227 265.404684 
L 224.948206 267.911627 
L 225.273186 267.911627 
L 225.598165 254.12344 
L 225.923145 257.883855 
L 226.248124 271.672041 
L 226.573104 267.911627 
L 227.223063 250.363026 
L 227.548043 272.925513 
L 227.873022 272.925513 
L 228.198002 264.151212 
L 228.522981 249.109554 
L 228.847961 261.644269 
L 229.17294 257.883855 
L 229.49792 247.856083 
L 229.822899 246.602611 
L 230.147879 264.151212 
L 230.472858 252.869969 
L 230.797838 259.137326 
L 231.122817 252.869969 
L 231.447797 255.376912 
L 231.772776 261.644269 
L 232.097756 251.616497 
L 232.422735 270.41857 
L 232.747715 256.630383 
L 233.072695 264.151212 
L 233.397674 250.363026 
L 233.722654 256.630383 
L 234.047633 257.883855 
L 234.372613 270.41857 
L 234.697592 255.376912 
L 235.022572 254.12344 
L 235.347551 277.939399 
L 235.672531 260.390798 
L 235.99751 257.883855 
L 236.32249 267.911627 
L 236.647469 262.897741 
L 236.972449 232.814425 
L 237.297428 257.883855 
L 237.622408 256.630383 
L 237.947387 249.109554 
L 238.272367 261.644269 
L 238.597346 257.883855 
L 238.922326 261.644269 
L 239.247305 246.602611 
L 239.572285 255.376912 
L 239.897265 252.869969 
L 240.222244 251.616497 
L 240.547224 259.137326 
L 240.872203 261.644269 
L 241.197183 251.616497 
L 241.522162 271.672041 
L 241.847142 255.376912 
L 242.172121 261.644269 
L 242.497101 250.363026 
L 242.82208 271.672041 
L 243.14706 265.404684 
L 243.472039 271.672041 
L 243.797019 262.897741 
L 244.121998 250.363026 
L 244.446978 252.869969 
L 244.771957 259.137326 
L 245.096937 246.602611 
L 245.421916 266.658155 
L 245.746896 257.883855 
L 246.071876 257.883855 
L 246.396855 245.34914 
L 246.721835 246.602611 
L 247.046814 277.939399 
L 247.371794 244.095668 
L 247.696773 256.630383 
L 248.346732 261.644269 
L 248.671712 282.953285 
L 248.996691 262.897741 
L 249.321671 254.12344 
L 249.64665 255.376912 
L 249.97163 241.588725 
L 250.621589 267.911627 
L 251.271548 252.869969 
L 251.596527 266.658155 
L 251.921507 259.137326 
L 252.246486 244.095668 
L 252.571466 261.644269 
L 252.896446 269.165098 
L 253.221425 242.842197 
L 253.546405 262.897741 
L 254.196364 280.446342 
L 254.521343 245.34914 
L 254.846323 256.630383 
L 255.171302 260.390798 
L 255.496282 255.376912 
L 255.821261 271.672041 
L 256.146241 256.630383 
L 256.47122 271.672041 
L 256.7962 276.685927 
L 257.121179 276.685927 
L 257.446159 264.151212 
L 257.771138 264.151212 
L 258.096118 249.109554 
L 258.421097 266.658155 
L 258.746077 259.137326 
L 259.071057 247.856083 
L 259.396036 256.630383 
L 259.721016 241.588725 
L 260.045995 266.658155 
L 260.370975 257.883855 
L 260.695954 252.869969 
L 261.020934 251.616497 
L 261.345913 241.588725 
L 261.670893 250.363026 
L 261.995872 245.34914 
L 262.320852 271.672041 
L 262.970811 245.34914 
L 263.29579 264.151212 
L 263.62077 251.616497 
L 263.945749 261.644269 
L 264.270729 261.644269 
L 264.595708 244.095668 
L 265.245667 251.616497 
L 265.570647 266.658155 
L 265.895627 250.363026 
L 266.220606 242.842197 
L 266.545586 264.151212 
L 266.870565 254.12344 
L 267.520524 282.953285 
L 267.845504 265.404684 
L 268.170483 274.178984 
L 268.495463 271.672041 
L 268.820442 259.137326 
L 269.145422 257.883855 
L 269.470401 270.41857 
L 269.795381 270.41857 
L 270.12036 261.644269 
L 270.44534 267.911627 
L 270.770319 259.137326 
L 271.095299 254.12344 
L 271.420278 264.151212 
L 271.745258 259.137326 
L 272.070238 270.41857 
L 272.395217 249.109554 
L 272.720197 252.869969 
L 273.045176 265.404684 
L 273.370156 252.869969 
L 273.695135 250.363026 
L 274.020115 255.376912 
L 274.345094 249.109554 
L 274.670074 276.685927 
L 274.995053 260.390798 
L 275.320033 282.953285 
L 275.645012 240.335254 
L 275.969992 262.897741 
L 276.294971 266.658155 
L 276.619951 267.911627 
L 276.94493 285.460228 
L 277.26991 264.151212 
L 277.594889 271.672041 
L 277.919869 252.869969 
L 278.244848 269.165098 
L 278.569828 235.321368 
L 278.894808 244.095668 
L 279.219787 264.151212 
L 279.544767 272.925513 
L 280.194726 251.616497 
L 280.519705 249.109554 
L 280.844685 255.376912 
L 281.169664 257.883855 
L 281.819623 250.363026 
L 282.144603 260.390798 
L 282.469582 261.644269 
L 282.794562 256.630383 
L 283.119541 267.911627 
L 283.444521 241.588725 
L 283.7695 269.165098 
L 284.419459 237.828311 
L 284.744439 261.644269 
L 285.069419 256.630383 
L 285.394398 254.12344 
L 285.719378 279.19287 
L 286.044357 260.390798 
L 286.369337 249.109554 
L 286.694316 265.404684 
L 287.019296 260.390798 
L 287.344275 249.109554 
L 287.669255 272.925513 
L 287.994234 250.363026 
L 288.319214 261.644269 
L 288.644193 261.644269 
L 288.969173 251.616497 
L 289.294152 271.672041 
L 289.619132 272.925513 
L 289.944111 265.404684 
L 290.269091 266.658155 
L 290.59407 261.644269 
L 290.91905 266.658155 
L 291.244029 259.137326 
L 291.569009 269.165098 
L 291.893989 256.630383 
L 292.218968 270.41857 
L 292.543948 270.41857 
L 292.868927 261.644269 
L 293.193907 271.672041 
L 293.518886 262.897741 
L 293.843866 261.644269 
L 294.168845 251.616497 
L 294.493825 256.630383 
L 294.818804 259.137326 
L 295.143784 264.151212 
L 295.468763 247.856083 
L 295.793743 241.588725 
L 296.118722 261.644269 
L 296.443702 250.363026 
L 296.768681 254.12344 
L 297.093661 276.685927 
L 297.41864 247.856083 
L 297.74362 251.616497 
L 298.393579 271.672041 
L 298.718559 262.897741 
L 299.043538 239.081782 
L 299.368518 266.658155 
L 299.693497 252.869969 
L 300.018477 266.658155 
L 300.343456 252.869969 
L 300.668436 262.897741 
L 300.993415 244.095668 
L 301.643374 261.644269 
L 301.968354 260.390798 
L 302.293333 254.12344 
L 302.618313 270.41857 
L 303.268272 245.34914 
L 303.593251 262.897741 
L 303.918231 256.630383 
L 304.24321 257.883855 
L 304.56819 250.363026 
L 305.218149 269.165098 
L 305.543129 267.911627 
L 305.868108 260.390798 
L 306.193088 264.151212 
L 306.518067 264.151212 
L 306.843047 262.897741 
L 307.168026 249.109554 
L 307.493006 257.883855 
L 307.817985 254.12344 
L 308.142965 295.488 
L 308.467944 264.151212 
L 308.792924 261.644269 
L 309.117903 251.616497 
L 309.442883 250.363026 
L 309.767862 269.165098 
L 310.092842 264.151212 
L 310.417821 246.602611 
L 310.742801 269.165098 
L 311.067781 265.404684 
L 311.39276 250.363026 
L 311.71774 275.432456 
L 312.042719 254.12344 
L 312.367699 264.151212 
L 312.692678 269.165098 
L 313.017658 246.602611 
L 313.342637 262.897741 
L 313.667617 260.390798 
L 313.992596 282.953285 
L 314.317576 252.869969 
L 314.642555 269.165098 
L 314.967535 251.616497 
L 315.292514 240.335254 
L 315.617494 256.630383 
L 315.942473 259.137326 
L 316.267453 260.390798 
L 316.592432 256.630383 
L 316.917412 261.644269 
L 317.242391 257.883855 
L 317.567371 250.363026 
L 317.892351 270.41857 
L 318.21733 249.109554 
L 318.54231 245.34914 
L 319.192269 271.672041 
L 319.517248 254.12344 
L 319.842228 256.630383 
L 320.167207 250.363026 
L 320.817166 271.672041 
L 321.142146 256.630383 
L 321.467125 265.404684 
L 321.792105 245.34914 
L 322.117084 266.658155 
L 322.442064 240.335254 
L 322.767043 264.151212 
L 323.092023 255.376912 
L 323.417002 255.376912 
L 323.741982 282.953285 
L 324.066962 267.911627 
L 324.391941 275.432456 
L 324.716921 256.630383 
L 325.0419 256.630383 
L 325.36688 262.897741 
L 325.691859 262.897741 
L 326.016839 260.390798 
L 326.341818 239.081782 
L 326.666798 260.390798 
L 326.991777 271.672041 
L 327.316757 254.12344 
L 327.641736 254.12344 
L 327.966716 262.897741 
L 328.291695 255.376912 
L 328.616675 240.335254 
L 329.266634 267.911627 
L 329.591613 265.404684 
L 329.916593 245.34914 
L 330.241572 256.630383 
L 330.566552 249.109554 
L 330.891532 264.151212 
L 331.216511 252.869969 
L 331.541491 247.856083 
L 331.86647 262.897741 
L 332.19145 256.630383 
L 332.516429 260.390798 
L 332.841409 269.165098 
L 333.491368 245.34914 
L 333.816347 259.137326 
L 334.141327 256.630383 
L 334.466306 267.911627 
L 334.791286 255.376912 
L 335.441245 247.856083 
L 335.766224 256.630383 
L 336.091204 251.616497 
L 336.416183 239.081782 
L 336.741163 267.911627 
L 337.066143 262.897741 
L 337.391122 254.12344 
L 337.716102 241.588725 
L 338.041081 265.404684 
L 338.366061 246.602611 
L 338.69104 257.883855 
L 339.01602 255.376912 
L 339.340999 271.672041 
L 339.665979 251.616497 
L 340.315938 277.939399 
L 340.640917 255.376912 
L 340.965897 259.137326 
L 341.290876 256.630383 
L 341.615856 255.376912 
L 341.940835 269.165098 
L 342.265815 257.883855 
L 342.590794 259.137326 
L 342.915774 264.151212 
L 343.240753 245.34914 
L 343.565733 271.672041 
L 343.890713 254.12344 
L 344.215692 256.630383 
L 344.540672 257.883855 
L 345.190631 270.41857 
L 345.51561 266.658155 
L 345.84059 249.109554 
L 346.165569 275.432456 
L 346.490549 250.363026 
L 346.815528 277.939399 
L 347.140508 259.137326 
L 347.465487 269.165098 
L 347.790467 260.390798 
L 348.115446 265.404684 
L 348.440426 274.178984 
L 348.765405 251.616497 
L 349.090385 256.630383 
L 349.415364 272.925513 
L 350.065324 255.376912 
L 350.390303 260.390798 
L 350.715283 239.081782 
L 351.040262 247.856083 
L 351.365242 264.151212 
L 351.690221 256.630383 
L 352.015201 244.095668 
L 352.34018 260.390798 
L 352.66516 256.630383 
L 352.990139 261.644269 
L 353.315119 260.390798 
L 353.640098 265.404684 
L 353.965078 275.432456 
L 354.290057 270.41857 
L 354.615037 245.34914 
L 354.940016 254.12344 
L 355.264996 255.376912 
L 355.589975 265.404684 
L 355.914955 250.363026 
L 356.239934 266.658155 
L 356.564914 262.897741 
L 356.889894 272.925513 
L 357.214873 271.672041 
L 357.539853 272.925513 
L 357.864832 259.137326 
L 358.189812 254.12344 
L 358.514791 265.404684 
L 358.839771 240.335254 
L 359.16475 256.630383 
L 359.48973 262.897741 
L 359.814709 256.630383 
L 360.139689 257.883855 
L 360.464668 251.616497 
L 360.789648 260.390798 
L 361.114627 247.856083 
L 361.439607 276.685927 
L 361.764586 265.404684 
L 362.089566 247.856083 
L 362.414545 252.869969 
L 362.739525 266.658155 
L 363.389484 274.178984 
L 363.714464 260.390798 
L 364.039443 252.869969 
L 364.364423 256.630383 
L 364.689402 245.34914 
L 365.014382 244.095668 
L 365.339361 247.856083 
L 365.664341 240.335254 
L 366.3143 271.672041 
L 366.639279 262.897741 
L 366.964259 264.151212 
L 367.289238 261.644269 
L 367.614218 260.390798 
L 367.939197 251.616497 
L 368.264177 230.307482 
L 368.589156 254.12344 
L 368.914136 260.390798 
L 369.239115 254.12344 
L 369.564095 241.588725 
L 369.889075 272.925513 
L 370.214054 250.363026 
L 370.539034 275.432456 
L 370.864013 250.363026 
L 371.188993 259.137326 
L 371.838952 266.658155 
L 372.163931 260.390798 
L 372.488911 260.390798 
L 372.81389 264.151212 
L 373.13887 264.151212 
L 373.463849 257.883855 
L 373.788829 259.137326 
L 374.113808 251.616497 
L 374.438788 260.390798 
L 374.763767 240.335254 
L 375.088747 264.151212 
L 375.413726 259.137326 
L 375.738706 267.911627 
L 376.063686 241.588725 
L 376.713645 272.925513 
L 377.038624 276.685927 
L 377.363604 256.630383 
L 377.688583 256.630383 
L 378.013563 265.404684 
L 378.338542 262.897741 
L 378.663522 251.616497 
L 378.988501 271.672041 
L 379.313481 269.165098 
L 379.63846 251.616497 
L 380.288419 267.911627 
L 380.613399 249.109554 
L 380.938378 265.404684 
L 381.263358 259.137326 
L 381.588337 267.911627 
L 381.913317 259.137326 
L 382.238296 265.404684 
L 382.563276 264.151212 
L 382.888256 237.828311 
L 383.213235 254.12344 
L 383.863194 269.165098 
L 384.188174 249.109554 
L 384.513153 271.672041 
L 384.838133 251.616497 
L 385.163112 254.12344 
L 385.488092 242.842197 
L 385.813071 267.911627 
L 386.138051 255.376912 
L 386.46303 251.616497 
L 386.78801 259.137326 
L 387.112989 262.897741 
L 387.437969 271.672041 
L 387.762948 245.34914 
L 388.087928 277.939399 
L 388.737887 250.363026 
L 389.062867 261.644269 
L 389.387846 245.34914 
L 389.712826 271.672041 
L 390.362785 254.12344 
L 390.687764 260.390798 
L 391.012744 274.178984 
L 391.337723 256.630383 
L 391.662703 257.883855 
L 391.987682 271.672041 
L 392.312662 261.644269 
L 392.637641 266.658155 
L 392.962621 252.869969 
L 393.2876 276.685927 
L 393.61258 249.109554 
L 393.937559 245.34914 
L 394.262539 279.19287 
L 394.587518 252.869969 
L 394.912498 260.390798 
L 395.237477 251.616497 
L 395.562457 270.41857 
L 395.887437 271.672041 
L 396.212416 274.178984 
L 396.537396 262.897741 
L 396.862375 261.644269 
L 397.187355 261.644269 
L 397.512334 260.390798 
L 397.837314 256.630383 
L 398.162293 281.699813 
L 398.487273 261.644269 
L 398.487273 261.644269 
" style="fill:none;stroke:#0000ff;stroke-linecap:square;stroke-width:1.5;"/>
   </g>
   <g id="line2d_32">
    <path clip-path="url(#pcb241c4315)" d="M 73.832727 153.122769 
L 74.157707 172.871913 
L 74.482686 164.314027 
L 74.807666 167.848795 
L 75.132645 156.697962 
L 75.457625 183.581519 
L 75.782604 180.177092 
L 76.107584 147.802483 
L 76.432563 164.314027 
L 76.757543 168.806018 
L 77.082523 162.012473 
L 77.407502 180.389578 
L 77.732482 162.012473 
L 78.057461 165.361147 
L 78.382441 159.002977 
L 78.70742 158.148159 
L 79.0324 154.482697 
L 79.357379 157.252192 
L 79.682359 149.493856 
L 80.007338 157.514258 
L 80.657297 180.536481 
L 80.982277 156.817456 
L 81.307256 159.736156 
L 81.632236 190.588957 
L 81.957215 153.428821 
L 82.282195 168.096439 
L 82.607174 154.482697 
L 82.932154 168.131155 
L 83.582113 161.097181 
L 83.907093 170.377182 
L 84.232072 160.597096 
L 84.557052 167.252109 
L 84.882031 181.918176 
L 85.207011 147.522133 
L 85.53199 155.137886 
L 85.85697 170.377182 
L 86.181949 173.560012 
L 86.506929 168.387414 
L 86.831908 155.137886 
L 87.806847 176.837996 
L 88.131826 190.748548 
L 88.456806 170.368299 
L 88.781785 162.504025 
L 89.106765 170.977547 
L 89.431744 175.404053 
L 89.756724 158.165899 
L 90.081704 170.516047 
L 90.406683 175.382185 
L 90.731663 167.680003 
L 91.056642 184.167324 
L 91.381622 172.413072 
L 91.706601 171.358515 
L 92.031581 180.211559 
L 92.35656 170.873544 
L 92.68154 172.245164 
L 93.006519 167.642377 
L 93.331499 169.352171 
L 93.656478 169.352171 
L 93.981458 173.713419 
L 94.306437 161.27832 
L 94.631417 164.89545 
L 94.956396 172.245164 
L 95.281376 161.751736 
L 95.606355 176.891506 
L 95.931335 175.404053 
L 96.256314 155.107661 
L 96.581294 163.505618 
L 96.906274 175.404053 
L 97.556233 149.14163 
L 98.206192 167.17275 
L 98.531171 158.149189 
L 98.856151 158.909758 
L 99.50611 177.997967 
L 100.156069 167.280387 
L 100.481048 169.586459 
L 100.806028 178.91515 
L 101.131007 176.891506 
L 101.455987 179.11521 
L 101.780966 174.685973 
L 102.105946 172.023132 
L 102.755905 155.912389 
L 103.080885 188.231475 
L 103.730844 162.664168 
L 104.055823 172.577064 
L 104.380803 173.631896 
L 104.705782 160.322222 
L 105.030762 170.427541 
L 105.355741 170.186277 
L 105.680721 158.048133 
L 106.0057 168.810033 
L 106.33068 164.314027 
L 106.655659 181.945893 
L 106.980639 175.289695 
L 107.305618 159.561503 
L 107.630598 160.98041 
L 107.955577 178.573898 
L 108.280557 160.047623 
L 108.605536 154.41072 
L 108.930516 185.332698 
L 109.255495 177.78158 
L 109.580475 175.955237 
L 109.905455 176.848742 
L 110.555414 173.5093 
L 110.880393 162.823721 
L 111.205373 171.667246 
L 111.530352 153.77799 
L 111.855332 192.38136 
L 112.180311 151.499611 
L 112.505291 165.170498 
L 112.83027 161.038769 
L 113.15525 180.274492 
L 113.480229 192.561019 
L 113.805209 154.17255 
L 114.130188 169.863733 
L 114.455168 169.863733 
L 114.780147 161.20598 
L 115.105127 170.034856 
L 115.430106 171.942242 
L 115.755086 158.282782 
L 116.080066 171.965773 
L 116.405045 157.252192 
L 116.730025 171.094699 
L 117.055004 154.020408 
L 117.379984 155.424996 
L 117.704963 152.290934 
L 118.029943 146.569384 
L 118.354922 151.374598 
L 118.679902 171.991498 
L 119.004881 171.358515 
L 119.329861 167.209234 
L 119.65484 173.617572 
L 119.97982 167.192972 
L 120.304799 154.17255 
L 120.629779 174.404094 
L 120.954758 167.280387 
L 121.279738 175.828962 
L 121.929697 165.715294 
L 122.254676 155.622874 
L 122.579656 166.498034 
L 122.904636 171.358515 
L 123.229615 178.756401 
L 123.554595 162.99184 
L 123.879574 164.89545 
L 124.204554 183.645344 
L 124.529533 162.533882 
L 124.854513 154.985988 
L 125.179492 153.122769 
L 125.504472 172.871913 
L 125.829451 169.108867 
L 126.47941 179.64798 
L 126.80439 169.682703 
L 127.129369 173.81545 
L 127.454349 172.115746 
L 127.779328 172.023132 
L 128.104308 188.857108 
L 128.429287 165.715294 
L 128.754267 160.98041 
L 129.079247 158.453489 
L 129.404226 163.445223 
L 129.729206 165.856552 
L 130.054185 145.446617 
L 130.379165 167.642377 
L 130.704144 163.734325 
L 131.029124 154.615009 
L 131.354103 166.363266 
L 131.679083 173.5093 
L 132.004062 162.536992 
L 132.979001 176.917771 
L 133.30398 155.033737 
L 133.62896 143.729719 
L 133.953939 165.605994 
L 134.278919 163.198397 
L 134.603898 144.124129 
L 135.253857 165.963536 
L 135.578837 168.806018 
L 135.903817 157.818112 
L 136.553776 178.083681 
L 136.878755 154.232167 
L 137.203735 166.624496 
L 137.528714 174.404094 
L 138.178673 157.252192 
L 138.503653 174.404094 
L 138.828632 152.857767 
L 139.153612 160.915036 
L 139.478591 175.73037 
L 139.803571 170.446461 
L 140.12855 158.198567 
L 140.45353 177.011173 
L 140.778509 172.245164 
L 141.103489 180.724479 
L 141.428468 175.298828 
L 141.753448 157.946488 
L 142.403407 174.166477 
L 142.728387 155.107661 
L 143.053366 173.81545 
L 143.378346 159.893563 
L 143.703325 168.762109 
L 144.028305 173.580388 
L 144.353284 157.981332 
L 144.678264 172.115746 
L 145.003243 143.526836 
L 145.328223 170.977547 
L 145.653202 182.177427 
L 145.978182 181.945893 
L 146.303161 180.211559 
L 146.95312 160.088341 
L 147.2781 161.531623 
L 147.603079 167.345714 
L 147.928059 165.821312 
L 148.253038 180.724479 
L 148.578018 162.823721 
L 148.902998 162.823721 
L 149.227977 154.232167 
L 149.552957 172.444114 
L 150.202916 165.715294 
L 150.527895 157.227368 
L 150.852875 153.428821 
L 151.177854 181.874431 
L 151.502834 173.560012 
L 151.827813 158.909758 
L 152.152793 153.428821 
L 152.477772 188.852139 
L 152.802752 153.77799 
L 153.127731 165.600052 
L 153.452711 164.314027 
L 153.77769 164.66231 
L 154.10267 148.831834 
L 154.427649 178.658365 
L 154.752629 156.845759 
L 155.077609 181.886886 
L 155.402588 165.963536 
L 155.727568 175.289695 
L 156.052547 168.762109 
L 156.377527 187.119094 
L 157.027486 160.088341 
L 157.352465 175.547299 
L 157.677445 155.107661 
L 158.002424 141.983137 
L 158.327404 170.341933 
L 158.652383 187.038945 
L 158.977363 159.893563 
L 159.302342 168.887378 
L 159.627322 164.66231 
L 159.952301 175.955237 
L 160.277281 164.057091 
L 160.60226 176.848742 
L 160.92724 173.698221 
L 161.252219 163.445223 
L 161.577199 177.313189 
L 161.902179 155.85915 
L 162.227158 145.708532 
L 162.552138 176.891506 
L 162.877117 169.352171 
L 163.202097 157.029955 
L 163.527076 168.758901 
L 163.852056 162.99184 
L 164.177035 153.601431 
L 164.502015 169.586459 
L 164.826994 162.533882 
L 165.151974 169.004442 
L 165.476953 162.533882 
L 165.801933 159.002977 
L 166.126912 170.977547 
L 166.451892 167.252109 
L 166.776871 175.955237 
L 167.101851 177.142385 
L 167.42683 175.547299 
L 167.75181 177.011173 
L 168.07679 175.547299 
L 168.401769 162.012473 
L 168.726749 175.298828 
L 169.051728 155.263845 
L 169.376708 176.837996 
L 169.701687 162.31587 
L 170.026667 168.758901 
L 170.351646 150.157648 
L 170.676626 149.903006 
L 171.001605 155.424996 
L 171.326585 173.16709 
L 171.651564 163.734325 
L 171.976544 160.98041 
L 172.301523 175.229974 
L 172.951482 163.445223 
L 173.276462 162.31587 
L 173.601441 165.715294 
L 173.926421 170.693004 
L 174.2514 146.992509 
L 174.57638 155.108146 
L 174.90136 157.029955 
L 175.226339 171.094699 
L 175.551319 168.887378 
L 175.876298 165.175942 
L 176.201278 175.298828 
L 176.526257 148.331693 
L 176.851237 166.624496 
L 177.176216 153.529059 
L 177.826175 168.806018 
L 178.476134 157.029955 
L 178.801114 166.143594 
L 179.126093 158.559984 
L 179.451073 194.237907 
L 179.776052 146.612227 
L 180.101032 171.192411 
L 180.426011 163.734325 
L 180.750991 173.698221 
L 181.075971 173.81545 
L 181.40095 170.339383 
L 181.72593 164.469104 
L 182.050909 165.643982 
L 182.375889 171.965773 
L 183.025848 161.689465 
L 183.350827 173.713419 
L 183.675807 178.509506 
L 184.000786 190.588957 
L 184.325766 171.452194 
L 184.650745 180.209863 
L 185.300704 167.475268 
L 185.625684 169.004442 
L 185.950663 155.912389 
L 186.275643 167.192972 
L 186.600622 154.17255 
L 186.925602 190.969179 
L 187.250581 155.912389 
L 187.900541 172.621315 
L 188.22552 163.198397 
L 188.5505 161.27832 
L 189.200459 172.115746 
L 189.525438 172.023378 
L 190.500377 153.428821 
L 190.825356 154.773852 
L 191.150336 148.331693 
L 191.475315 181.863553 
L 191.800295 173.698221 
L 192.125274 168.637068 
L 192.450254 169.004442 
L 192.775233 165.963536 
L 193.100213 171.951223 
L 193.425192 166.929419 
L 193.750172 174.404094 
L 194.075152 170.551213 
L 194.400131 150.165923 
L 194.725111 160.088341 
L 195.05009 183.590877 
L 195.37507 143.750218 
L 195.700049 177.78158 
L 196.025029 152.018056 
L 196.350008 156.388484 
L 196.674988 152.631923 
L 196.999967 164.04386 
L 197.324947 170.556615 
L 197.649926 156.845759 
L 197.974906 159.893563 
L 198.299885 166.929419 
L 198.624865 178.498251 
L 198.949844 164.66231 
L 199.274824 177.200522 
L 199.599803 165.600052 
L 200.249762 149.890714 
L 200.574742 170.339383 
L 200.899722 172.413072 
L 201.224701 165.170498 
L 201.549681 152.631923 
L 201.87466 177.142385 
L 202.19964 176.860545 
L 202.524619 153.122769 
L 202.849599 159.736156 
L 203.174578 175.289695 
L 203.499558 149.432887 
L 203.824537 151.259475 
L 204.149517 165.821312 
L 204.474496 149.105925 
L 204.799476 167.345714 
L 205.124455 163.198397 
L 205.449435 164.469104 
L 206.099394 159.199003 
L 206.424373 172.413072 
L 206.749353 174.846942 
L 207.074333 160.597096 
L 207.399312 161.20598 
L 207.724292 163.059838 
L 208.374251 183.645344 
L 208.69923 145.929014 
L 209.02421 149.686554 
L 209.349189 155.486355 
L 209.674169 167.475268 
L 209.999148 158.453489 
L 210.324128 169.004442 
L 210.649107 162.823721 
L 210.974087 171.192411 
L 211.299066 158.165899 
L 211.624046 180.211559 
L 211.949025 142.277303 
L 212.274005 171.192411 
L 212.598984 167.345714 
L 212.923964 152.443509 
L 213.248943 148.39156 
L 213.573923 170.341933 
L 213.898903 165.821312 
L 214.223882 153.77799 
L 214.548862 174.166477 
L 214.873841 153.706541 
L 215.198821 162.823721 
L 215.5238 162.823721 
L 215.84878 180.724479 
L 216.173759 157.252192 
L 216.823718 165.715294 
L 217.148698 156.697962 
L 217.473677 189.587855 
L 217.798657 160.047623 
L 218.123636 167.848795 
L 218.448616 153.335203 
L 218.773595 178.756401 
L 219.098575 180.211559 
L 219.423554 158.148159 
L 219.748534 161.20598 
L 220.073514 135.75288 
L 220.398493 162.823721 
L 220.723473 149.08976 
L 221.048452 172.245164 
L 221.373432 164.067904 
L 221.698411 170.873544 
L 222.34837 160.088341 
L 222.67335 152.857767 
L 222.998329 161.097181 
L 223.323309 155.655049 
L 223.648288 175.195441 
L 223.973268 175.547299 
L 224.298247 158.453489 
L 224.623227 168.806018 
L 224.948206 171.965773 
L 225.273186 171.965773 
L 225.598165 152.290934 
L 226.248124 176.837996 
L 226.573104 178.756401 
L 227.223063 161.27832 
L 227.548043 181.886886 
L 227.873022 178.498251 
L 228.522981 161.689465 
L 228.847961 174.404094 
L 229.49792 150.157648 
L 229.822899 150.452277 
L 230.147879 173.970928 
L 230.472858 171.452194 
L 230.797838 158.048133 
L 231.122817 155.622874 
L 231.447797 160.088341 
L 231.772776 179.985628 
L 232.097756 155.85915 
L 232.422735 173.560012 
L 232.747715 164.89545 
L 233.072695 175.73037 
L 233.397674 151.259475 
L 233.722654 159.893563 
L 234.047633 158.148159 
L 234.372613 175.195977 
L 235.022572 160.322222 
L 235.347551 180.369705 
L 235.672531 169.352171 
L 235.99751 168.096439 
L 236.32249 175.298828 
L 236.647469 175.955237 
L 236.972449 141.983137 
L 237.297428 164.66231 
L 237.622408 159.893563 
L 237.947387 161.689465 
L 238.272367 176.224072 
L 238.597346 166.363266 
L 238.922326 167.475268 
L 239.247305 159.002977 
L 239.572285 163.445223 
L 239.897265 150.890991 
L 240.222244 159.199003 
L 240.872203 167.475268 
L 241.197183 160.915036 
L 241.522162 170.427541 
L 241.847142 153.706541 
L 242.172121 172.621315 
L 242.497101 157.818112 
L 242.82208 185.519239 
L 243.14706 173.81545 
L 243.472039 175.195441 
L 243.797019 170.693004 
L 244.121998 157.818112 
L 244.446978 160.597096 
L 244.771957 158.048133 
L 245.096937 147.237814 
L 245.421916 175.404053 
L 245.746896 162.99184 
L 246.071876 164.66231 
L 246.396855 141.295904 
L 247.046814 185.3266 
L 247.371794 152.876008 
L 247.696773 155.137886 
L 248.021753 169.586459 
L 248.346732 174.404094 
L 248.671712 184.167324 
L 248.996691 177.78158 
L 249.321671 158.661895 
L 249.64665 170.556615 
L 249.97163 155.655049 
L 250.296609 150.759532 
L 250.621589 170.341933 
L 250.946568 178.434464 
L 251.271548 152.443509 
L 251.596527 177.142385 
L 252.246486 146.228518 
L 252.571466 169.158796 
L 252.896446 170.339383 
L 253.221425 149.890714 
L 253.546405 172.413072 
L 254.196364 185.488119 
L 254.521343 154.17255 
L 255.171302 180.374534 
L 255.496282 160.088341 
L 255.821261 181.945893 
L 256.146241 163.198397 
L 256.7962 175.503521 
L 257.121179 190.606105 
L 257.446159 183.149405 
L 257.771138 170.551213 
L 258.096118 151.499611 
L 258.746077 167.848795 
L 259.071057 165.899749 
L 259.396036 172.023378 
L 259.721016 165.343031 
L 260.045995 167.166939 
L 260.370975 168.096439 
L 261.020934 149.506644 
L 261.670893 154.482697 
L 261.995872 144.361024 
L 262.320852 176.837996 
L 262.645831 172.871913 
L 262.970811 159.49778 
L 263.29579 179.358706 
L 263.62077 166.269906 
L 263.945749 164.195425 
L 264.270729 157.946488 
L 264.595708 149.493856 
L 264.920688 150.157648 
L 265.245667 157.514258 
L 265.570647 182.572731 
L 265.895627 148.137833 
L 266.220606 146.569384 
L 266.545586 175.73037 
L 266.870565 162.012473 
L 267.195545 173.571972 
L 267.520524 190.748548 
L 267.845504 170.446461 
L 268.170483 190.806638 
L 268.495463 171.991498 
L 268.820442 167.848795 
L 269.470401 171.951223 
L 269.795381 182.042162 
L 270.12036 165.821312 
L 270.44534 177.011173 
L 270.770319 159.614531 
L 271.095299 149.25049 
L 271.420278 172.245164 
L 271.745258 173.16709 
L 272.070238 182.042162 
L 272.395217 158.165899 
L 273.045176 177.313189 
L 273.370156 160.597096 
L 273.695135 156.135645 
L 274.020115 156.845759 
L 274.345094 159.910282 
L 274.670074 185.294186 
L 274.995053 169.352171 
L 275.320033 194.222021 
L 275.645012 145.708532 
L 275.969992 164.11178 
L 276.294971 164.057091 
L 276.94493 186.166611 
L 277.26991 173.970928 
L 277.594889 180.211559 
L 277.919869 162.31587 
L 278.244848 171.942242 
L 278.569828 140.894106 
L 279.544767 178.498251 
L 279.869746 154.957525 
L 280.194726 146.47422 
L 280.519705 159.910282 
L 280.844685 166.929419 
L 281.169664 147.670988 
L 281.494644 155.424996 
L 281.819623 159.531738 
L 282.144603 171.094699 
L 282.469582 174.404094 
L 282.794562 152.087554 
L 283.119541 162.59764 
L 283.444521 150.334623 
L 283.7695 178.63703 
L 284.419459 146.651721 
L 284.744439 172.621315 
L 285.394398 160.322222 
L 285.719378 183.731325 
L 286.044357 171.094699 
L 286.369337 163.505618 
L 286.694316 168.806018 
L 287.019296 157.981332 
L 287.344275 158.165899 
L 287.669255 172.061939 
L 287.994234 156.135645 
L 288.319214 161.022435 
L 288.644193 162.596223 
L 288.969173 152.631923 
L 289.294152 183.714418 
L 289.619132 189.073984 
L 290.269091 175.404053 
L 290.59407 170.873544 
L 290.91905 177.142385 
L 291.244029 159.614531 
L 291.569009 176.917771 
L 291.893989 175.822779 
L 292.218968 168.810033 
L 292.543948 164.272401 
L 292.868927 174.404094 
L 293.193907 173.580388 
L 293.518886 162.533882 
L 293.843866 170.873544 
L 294.168845 157.514258 
L 294.493825 159.893563 
L 294.818804 154.985988 
L 295.143784 181.232391 
L 295.793743 145.307752 
L 296.118722 170.873544 
L 296.443702 161.27832 
L 297.093661 178.658365 
L 297.74362 154.232167 
L 298.393579 180.211559 
L 298.718559 175.955237 
L 299.043538 151.374598 
L 299.368518 177.142385 
L 299.693497 158.909758 
L 300.018477 168.758901 
L 300.343456 158.909758 
L 300.668436 167.345714 
L 300.993415 147.847339 
L 301.318395 166.269906 
L 301.643374 157.946488 
L 301.968354 159.527224 
L 302.293333 158.661895 
L 302.618313 176.860545 
L 302.943292 176.308788 
L 303.268272 152.465295 
L 303.593251 160.98041 
L 303.918231 156.697962 
L 304.24321 162.99184 
L 304.56819 151.259475 
L 304.89317 171.094699 
L 305.218149 171.942242 
L 305.543129 182.353588 
L 305.868108 165.963536 
L 306.193088 179.358706 
L 306.518067 167.252109 
L 306.843047 179.64798 
L 307.168026 163.505618 
L 307.493006 164.66231 
L 307.817985 158.661895 
L 308.142965 196.384449 
L 308.467944 173.970928 
L 308.792924 176.224072 
L 309.117903 154.232167 
L 309.442883 154.482697 
L 309.767862 178.63703 
L 310.417821 152.100503 
L 310.742801 180.389578 
L 311.067781 164.04386 
L 311.39276 159.531738 
L 311.71774 173.823919 
L 312.367699 175.73037 
L 312.692678 175.229974 
L 313.017658 159.002977 
L 313.342637 169.004442 
L 313.667617 161.097181 
L 313.992596 181.035954 
L 314.317576 155.622874 
L 314.642555 176.917771 
L 315.292514 144.062441 
L 315.617494 164.89545 
L 315.942473 164.469104 
L 316.267453 171.094699 
L 316.592432 159.893563 
L 317.242391 171.667246 
L 317.567371 166.736653 
L 317.892351 176.860545 
L 318.21733 154.773852 
L 318.54231 150.788858 
L 319.192269 178.509506 
L 319.517248 157.029955 
L 319.842228 156.697962 
L 320.167207 159.531738 
L 320.492187 167.345714 
L 320.817166 181.945893 
L 321.142146 163.198397 
L 321.467125 167.192972 
L 321.792105 154.17255 
L 322.117084 172.023132 
L 322.442064 154.41072 
L 322.767043 170.551213 
L 323.092023 155.263845 
L 323.417002 156.845759 
L 323.741982 189.059986 
L 324.066962 173.617572 
L 324.391941 176.965109 
L 325.0419 161.531623 
L 325.36688 174.166477 
L 325.691859 167.345714 
L 326.016839 164.314027 
L 326.341818 142.833453 
L 326.666798 164.314027 
L 326.991777 175.195441 
L 327.316757 162.012473 
L 327.641736 153.84572 
L 327.966716 167.345714 
L 328.291695 166.929419 
L 328.616675 156.259173 
L 328.941654 150.890991 
L 329.266634 175.298828 
L 329.591613 162.505438 
L 329.916593 144.361024 
L 330.241572 156.697962 
L 330.566552 153.122769 
L 330.891532 172.245164 
L 331.216511 167.680003 
L 331.541491 146.992509 
L 331.86647 157.942423 
L 332.19145 158.282782 
L 332.516429 167.642377 
L 332.841409 180.389578 
L 333.166388 165.170498 
L 333.491368 167.160244 
L 333.816347 158.048133 
L 334.141327 163.198397 
L 334.466306 175.298828 
L 334.791286 168.724036 
L 335.116265 159.199003 
L 335.441245 153.428821 
L 335.766224 155.137886 
L 336.091204 162.664168 
L 336.416183 156.924399 
L 336.741163 165.624973 
L 337.066143 177.78158 
L 337.716102 137.467562 
L 338.041081 179.11521 
L 338.366061 155.486355 
L 338.69104 164.66231 
L 339.01602 158.453489 
L 339.340999 180.211559 
L 339.665979 159.199003 
L 339.990958 162.533882 
L 340.315938 172.625412 
L 340.640917 165.170498 
L 340.965897 167.848795 
L 341.290876 153.601431 
L 341.940835 180.389578 
L 342.265815 162.99184 
L 342.590794 169.586459 
L 342.915774 170.551213 
L 343.240753 154.17255 
L 343.565733 180.211559 
L 343.890713 152.290934 
L 344.215692 172.023378 
L 344.540672 156.585054 
L 344.865651 170.446461 
L 345.190631 176.860545 
L 345.51561 178.91515 
L 345.84059 158.165899 
L 346.165569 175.382185 
L 346.490549 151.259475 
L 346.815528 177.200522 
L 347.140508 167.848795 
L 347.465487 185.868168 
L 347.790467 167.642377 
L 348.115446 175.547299 
L 348.440426 175.289695 
L 348.765405 171.984054 
L 349.415364 175.227078 
L 349.740344 167.345714 
L 350.065324 168.724036 
L 350.390303 161.097181 
L 350.715283 134.990804 
L 351.365242 177.525539 
L 351.690221 149.123734 
L 352.015201 154.615009 
L 352.34018 169.352171 
L 352.66516 164.89545 
L 352.990139 178.083681 
L 353.315119 169.352171 
L 353.640098 167.192972 
L 353.965078 172.289192 
L 354.290057 180.281853 
L 354.615037 152.465295 
L 354.940016 158.661895 
L 355.264996 158.453489 
L 355.589975 168.806018 
L 355.914955 152.857767 
L 356.239934 172.023132 
L 356.564914 175.955237 
L 356.889894 189.073984 
L 357.214873 185.519239 
L 358.189812 162.012473 
L 358.514791 168.806018 
L 358.839771 144.062441 
L 359.16475 170.186277 
L 359.48973 170.693004 
L 359.814709 166.624496 
L 360.139689 175.392477 
L 360.464668 171.984054 
L 360.789648 171.094699 
L 361.114627 148.562466 
L 361.439607 181.918176 
L 361.764586 162.505438 
L 362.089566 158.559984 
L 362.414545 169.54475 
L 362.739525 162.536992 
L 363.064505 171.951223 
L 363.389484 175.289695 
L 363.714464 171.094699 
L 364.039443 155.622874 
L 364.364423 168.387414 
L 364.689402 161.347843 
L 365.014382 147.847339 
L 365.339361 150.157648 
L 365.664341 139.284925 
L 365.98932 160.088341 
L 366.3143 171.991498 
L 366.639279 177.78158 
L 366.964259 164.06169 
L 367.289238 176.224072 
L 367.939197 157.514258 
L 368.264177 145.117516 
L 368.589156 157.029955 
L 368.914136 159.527224 
L 369.239115 165.48962 
L 369.564095 153.84572 
L 369.889075 175.227078 
L 370.214054 159.531738 
L 370.539034 167.816252 
L 370.864013 163.059838 
L 371.188993 164.469104 
L 371.513972 174.166477 
L 371.838952 172.023132 
L 372.488911 156.458431 
L 372.81389 170.551213 
L 373.13887 170.551213 
L 373.463849 164.66231 
L 373.788829 171.358515 
L 374.113808 157.514258 
L 374.438788 167.642377 
L 374.763767 145.708532 
L 375.088747 165.643982 
L 375.413726 159.614531 
L 375.738706 171.965773 
L 376.063686 157.503301 
L 376.388665 155.263845 
L 376.713645 176.848742 
L 377.038624 177.068453 
L 377.363604 156.697962 
L 377.688583 159.893563 
L 378.013563 179.11521 
L 378.338542 169.004442 
L 378.663522 154.232167 
L 378.988501 180.211559 
L 379.313481 176.917771 
L 379.63846 162.664168 
L 379.96344 178.434464 
L 380.288419 168.744681 
L 380.613399 163.505618 
L 380.938378 175.547299 
L 381.263358 166.143594 
L 381.588337 171.965773 
L 381.913317 167.848795 
L 382.238296 170.446461 
L 382.563276 170.551213 
L 382.888256 135.296181 
L 383.213235 160.322222 
L 383.538215 165.715294 
L 383.863194 178.63703 
L 384.188174 161.689465 
L 384.513153 173.580388 
L 384.838133 154.232167 
L 385.163112 170.977547 
L 385.488092 153.335203 
L 385.813071 173.617572 
L 386.138051 161.751736 
L 386.46303 162.664168 
L 386.78801 166.143594 
L 387.112989 167.345714 
L 387.437969 167.369955 
L 387.762948 152.465295 
L 388.087928 178.772453 
L 388.412907 152.053291 
L 388.737887 154.482697 
L 389.062867 165.821312 
L 389.387846 154.17255 
L 389.712826 185.519239 
L 390.037805 165.715294 
L 390.362785 155.424996 
L 390.687764 172.871913 
L 391.337723 166.624496 
L 391.662703 164.66231 
L 391.987682 178.509506 
L 392.312662 176.224072 
L 392.637641 170.377182 
L 392.962621 171.452194 
L 393.2876 181.918176 
L 393.61258 151.499611 
L 393.937559 149.14163 
L 394.262539 187.081903 
L 394.587518 158.909758 
L 394.912498 157.981332 
L 395.237477 154.232167 
L 395.562457 175.195977 
L 395.887437 167.369955 
L 396.212416 181.863553 
L 396.537396 164.11178 
L 396.862375 169.158796 
L 397.187355 176.224072 
L 397.512334 178.434464 
L 397.837314 159.893563 
L 398.162293 187.264232 
L 398.487273 159.472885 
L 398.487273 159.472885 
" style="fill:none;stroke:#008000;stroke-dasharray:9.6,2.4,1.6,2.4;stroke-dashoffset:0;stroke-width:1.5;"/>
   </g>
   <g id="line2d_33">
    <path clip-path="url(#pcb241c4315)" d="M 73.832727 53.568 
L 87.156888 53.568 
L 87.481867 178.91515 
L 87.806847 53.568 
L 88.131826 178.91515 
L 88.456806 53.568 
L 108.605536 53.568 
L 108.930516 178.91515 
L 109.255495 53.568 
L 111.530352 53.568 
L 111.855332 178.91515 
L 112.180311 53.568 
L 113.15525 53.568 
L 113.480229 178.91515 
L 113.805209 53.568 
L 122.904636 53.568 
L 123.229615 178.91515 
L 123.554595 53.568 
L 125.179492 53.568 
L 125.504472 178.91515 
L 125.829451 53.568 
L 127.779328 53.568 
L 128.104308 178.91515 
L 128.429287 53.568 
L 142.728387 53.568 
L 143.053366 178.91515 
L 143.378346 53.568 
L 167.101851 53.568 
L 167.42683 178.91515 
L 167.75181 53.568 
L 179.126093 53.568 
L 179.451073 178.91515 
L 179.776052 53.568 
L 180.101032 53.568 
L 180.426011 178.91515 
L 180.750991 53.568 
L 182.375889 53.568 
L 182.700868 178.91515 
L 183.025848 53.568 
L 195.37507 53.568 
L 195.700049 178.91515 
L 196.025029 53.568 
L 201.549681 53.568 
L 201.87466 178.91515 
L 202.19964 53.568 
L 206.424373 53.568 
L 206.749353 178.91515 
L 207.074333 53.568 
L 217.148698 53.568 
L 217.473677 178.91515 
L 217.798657 53.568 
L 229.822899 53.568 
L 230.147879 178.91515 
L 230.472858 53.568 
L 231.447797 53.568 
L 231.772776 178.91515 
L 232.097756 53.568 
L 262.320852 53.568 
L 262.645831 178.91515 
L 262.970811 53.568 
L 289.619132 53.568 
L 289.944111 178.91515 
L 290.269091 53.568 
L 294.818804 53.568 
L 295.143784 178.91515 
L 295.468763 53.568 
L 302.618313 53.568 
L 302.943292 178.91515 
L 303.268272 53.568 
L 306.518067 53.568 
L 306.843047 178.91515 
L 307.168026 53.568 
L 308.467944 53.568 
L 308.792924 178.91515 
L 309.117903 53.568 
L 318.867289 53.568 
L 319.192269 178.91515 
L 319.517248 53.568 
L 321.792105 53.568 
L 322.117084 178.91515 
L 322.442064 53.568 
L 334.141327 53.568 
L 334.466306 178.91515 
L 334.791286 53.568 
L 336.741163 53.568 
L 337.066143 178.91515 
L 337.391122 53.568 
L 337.716102 53.568 
L 338.041081 178.91515 
L 338.366061 53.568 
L 366.964259 53.568 
L 367.289238 178.91515 
L 367.614218 53.568 
L 369.564095 53.568 
L 369.889075 178.91515 
L 370.214054 53.568 
L 379.63846 53.568 
L 379.96344 178.91515 
L 380.288419 53.568 
L 383.538215 53.568 
L 383.863194 178.91515 
L 384.188174 53.568 
L 384.838133 53.568 
L 385.163112 178.91515 
L 385.488092 53.568 
L 397.187355 53.568 
L 397.512334 178.91515 
L 397.837314 53.568 
L 398.487273 53.568 
L 398.487273 53.568 
" style="fill:none;stroke:#ff0000;stroke-linecap:square;stroke-width:1.5;"/>
   </g>
   <g id="patch_3">
    <path d="M 57.6 307.584 
L 57.6 41.472 
" style="fill:none;stroke:#000000;stroke-linecap:square;stroke-linejoin:miter;stroke-width:0.8;"/>
   </g>
   <g id="patch_4">
    <path d="M 414.72 307.584 
L 414.72 41.472 
" style="fill:none;stroke:#000000;stroke-linecap:square;stroke-linejoin:miter;stroke-width:0.8;"/>
   </g>
   <g id="patch_5">
    <path d="M 57.6 307.584 
L 414.72 307.584 
" style="fill:none;stroke:#000000;stroke-linecap:square;stroke-linejoin:miter;stroke-width:0.8;"/>
   </g>
   <g id="patch_6">
    <path d="M 57.6 41.472 
L 414.72 41.472 
" style="fill:none;stroke:#000000;stroke-linecap:square;stroke-linejoin:miter;stroke-width:0.8;"/>
   </g>
   <g id="text_18">
    <!-- Population's average and best fitness -->
    <defs>
     <path d="M 19.671875 64.796875 
L 19.671875 37.40625 
L 32.078125 37.40625 
Q 38.96875 37.40625 42.71875 40.96875 
Q 46.484375 44.53125 46.484375 51.125 
Q 46.484375 57.671875 42.71875 61.234375 
Q 38.96875 64.796875 32.078125 64.796875 
z
M 9.8125 72.90625 
L 32.078125 72.90625 
Q 44.34375 72.90625 50.609375 67.359375 
Q 56.890625 61.8125 56.890625 51.125 
Q 56.890625 40.328125 50.609375 34.8125 
Q 44.34375 29.296875 32.078125 29.296875 
L 19.671875 29.296875 
L 19.671875 0 
L 9.8125 0 
z
" id="DejaVuSans-50"/>
     <path d="M 18.109375 8.203125 
L 18.109375 -20.796875 
L 9.078125 -20.796875 
L 9.078125 54.6875 
L 18.109375 54.6875 
L 18.109375 46.390625 
Q 20.953125 51.265625 25.265625 53.625 
Q 29.59375 56 35.59375 56 
Q 45.5625 56 51.78125 48.09375 
Q 58.015625 40.1875 58.015625 27.296875 
Q 58.015625 14.40625 51.78125 6.484375 
Q 45.5625 -1.421875 35.59375 -1.421875 
Q 29.59375 -1.421875 25.265625 0.953125 
Q 20.953125 3.328125 18.109375 8.203125 
M 48.6875 27.296875 
Q 48.6875 37.203125 44.609375 42.84375 
Q 40.53125 48.484375 33.40625 48.484375 
Q 26.265625 48.484375 22.1875 42.84375 
Q 18.109375 37.203125 18.109375 27.296875 
Q 18.109375 17.390625 22.1875 11.75 
Q 26.265625 6.109375 33.40625 6.109375 
Q 40.53125 6.109375 44.609375 11.75 
Q 48.6875 17.390625 48.6875 27.296875 
" id="DejaVuSans-70"/>
     <path d="M 8.5 21.578125 
L 8.5 54.6875 
L 17.484375 54.6875 
L 17.484375 21.921875 
Q 17.484375 14.15625 20.5 10.265625 
Q 23.53125 6.390625 29.59375 6.390625 
Q 36.859375 6.390625 41.078125 11.03125 
Q 45.3125 15.671875 45.3125 23.6875 
L 45.3125 54.6875 
L 54.296875 54.6875 
L 54.296875 0 
L 45.3125 0 
L 45.3125 8.40625 
Q 42.046875 3.421875 37.71875 1 
Q 33.40625 -1.421875 27.6875 -1.421875 
Q 18.265625 -1.421875 13.375 4.4375 
Q 8.5 10.296875 8.5 21.578125 
M 31.109375 56 
z
" id="DejaVuSans-75"/>
     <path d="M 9.421875 75.984375 
L 18.40625 75.984375 
L 18.40625 0 
L 9.421875 0 
z
" id="DejaVuSans-6c"/>
     <path d="M 17.921875 72.90625 
L 17.921875 45.796875 
L 9.625 45.796875 
L 9.625 72.90625 
z
" id="DejaVuSans-27"/>
     <path id="DejaVuSans-20"/>
     <path d="M 2.984375 54.6875 
L 12.5 54.6875 
L 29.59375 8.796875 
L 46.6875 54.6875 
L 56.203125 54.6875 
L 35.6875 0 
L 23.484375 0 
z
" id="DejaVuSans-76"/>
     <path d="M 45.40625 27.984375 
Q 45.40625 37.75 41.375 43.109375 
Q 37.359375 48.484375 30.078125 48.484375 
Q 22.859375 48.484375 18.828125 43.109375 
Q 14.796875 37.75 14.796875 27.984375 
Q 14.796875 18.265625 18.828125 12.890625 
Q 22.859375 7.515625 30.078125 7.515625 
Q 37.359375 7.515625 41.375 12.890625 
Q 45.40625 18.265625 45.40625 27.984375 
M 54.390625 6.78125 
Q 54.390625 -7.171875 48.1875 -13.984375 
Q 42 -20.796875 29.203125 -20.796875 
Q 24.46875 -20.796875 20.265625 -20.09375 
Q 16.0625 -19.390625 12.109375 -17.921875 
L 12.109375 -9.1875 
Q 16.0625 -11.328125 19.921875 -12.34375 
Q 23.78125 -13.375 27.78125 -13.375 
Q 36.625 -13.375 41.015625 -8.765625 
Q 45.40625 -4.15625 45.40625 5.171875 
L 45.40625 9.625 
Q 42.625 4.78125 38.28125 2.390625 
Q 33.9375 0 27.875 0 
Q 17.828125 0 11.671875 7.65625 
Q 5.515625 15.328125 5.515625 27.984375 
Q 5.515625 40.671875 11.671875 48.328125 
Q 17.828125 56 27.875 56 
Q 33.9375 56 38.28125 53.609375 
Q 42.625 51.21875 45.40625 46.390625 
L 45.40625 54.6875 
L 54.390625 54.6875 
z
" id="DejaVuSans-67"/>
     <path d="M 45.40625 46.390625 
L 45.40625 75.984375 
L 54.390625 75.984375 
L 54.390625 0 
L 45.40625 0 
L 45.40625 8.203125 
Q 42.578125 3.328125 38.25 0.953125 
Q 33.9375 -1.421875 27.875 -1.421875 
Q 17.96875 -1.421875 11.734375 6.484375 
Q 5.515625 14.40625 5.515625 27.296875 
Q 5.515625 40.1875 11.734375 48.09375 
Q 17.96875 56 27.875 56 
Q 33.9375 56 38.25 53.625 
Q 42.578125 51.265625 45.40625 46.390625 
M 14.796875 27.296875 
Q 14.796875 17.390625 18.875 11.75 
Q 22.953125 6.109375 30.078125 6.109375 
Q 37.203125 6.109375 41.296875 11.75 
Q 45.40625 17.390625 45.40625 27.296875 
Q 45.40625 37.203125 41.296875 42.84375 
Q 37.203125 48.484375 30.078125 48.484375 
Q 22.953125 48.484375 18.875 42.84375 
Q 14.796875 37.203125 14.796875 27.296875 
" id="DejaVuSans-64"/>
     <path d="M 48.6875 27.296875 
Q 48.6875 37.203125 44.609375 42.84375 
Q 40.53125 48.484375 33.40625 48.484375 
Q 26.265625 48.484375 22.1875 42.84375 
Q 18.109375 37.203125 18.109375 27.296875 
Q 18.109375 17.390625 22.1875 11.75 
Q 26.265625 6.109375 33.40625 6.109375 
Q 40.53125 6.109375 44.609375 11.75 
Q 48.6875 17.390625 48.6875 27.296875 
M 18.109375 46.390625 
Q 20.953125 51.265625 25.265625 53.625 
Q 29.59375 56 35.59375 56 
Q 45.5625 56 51.78125 48.09375 
Q 58.015625 40.1875 58.015625 27.296875 
Q 58.015625 14.40625 51.78125 6.484375 
Q 45.5625 -1.421875 35.59375 -1.421875 
Q 29.59375 -1.421875 25.265625 0.953125 
Q 20.953125 3.328125 18.109375 8.203125 
L 18.109375 0 
L 9.078125 0 
L 9.078125 75.984375 
L 18.109375 75.984375 
z
" id="DejaVuSans-62"/>
     <path d="M 37.109375 75.984375 
L 37.109375 68.5 
L 28.515625 68.5 
Q 23.6875 68.5 21.796875 66.546875 
Q 19.921875 64.59375 19.921875 59.515625 
L 19.921875 54.6875 
L 34.71875 54.6875 
L 34.71875 47.703125 
L 19.921875 47.703125 
L 19.921875 0 
L 10.890625 0 
L 10.890625 47.703125 
L 2.296875 47.703125 
L 2.296875 54.6875 
L 10.890625 54.6875 
L 10.890625 58.5 
Q 10.890625 67.625 15.140625 71.796875 
Q 19.390625 75.984375 28.609375 75.984375 
z
" id="DejaVuSans-66"/>
    </defs>
    <g transform="translate(123.315 35.472)scale(0.12 -0.12)">
     <use xlink:href="#DejaVuSans-50"/>
     <use x="60.255859" xlink:href="#DejaVuSans-6f"/>
     <use x="121.4375" xlink:href="#DejaVuSans-70"/>
     <use x="184.914062" xlink:href="#DejaVuSans-75"/>
     <use x="248.292969" xlink:href="#DejaVuSans-6c"/>
     <use x="276.076172" xlink:href="#DejaVuSans-61"/>
     <use x="337.355469" xlink:href="#DejaVuSans-74"/>
     <use x="376.564453" xlink:href="#DejaVuSans-69"/>
     <use x="404.347656" xlink:href="#DejaVuSans-6f"/>
     <use x="465.529297" xlink:href="#DejaVuSans-6e"/>
     <use x="528.908203" xlink:href="#DejaVuSans-27"/>
     <use x="556.398438" xlink:href="#DejaVuSans-73"/>
     <use x="608.498047" xlink:href="#DejaVuSans-20"/>
     <use x="640.285156" xlink:href="#DejaVuSans-61"/>
     <use x="701.564453" xlink:href="#DejaVuSans-76"/>
     <use x="760.744141" xlink:href="#DejaVuSans-65"/>
     <use x="822.267578" xlink:href="#DejaVuSans-72"/>
     <use x="863.380859" xlink:href="#DejaVuSans-61"/>
     <use x="924.660156" xlink:href="#DejaVuSans-67"/>
     <use x="988.136719" xlink:href="#DejaVuSans-65"/>
     <use x="1049.660156" xlink:href="#DejaVuSans-20"/>
     <use x="1081.447266" xlink:href="#DejaVuSans-61"/>
     <use x="1142.726562" xlink:href="#DejaVuSans-6e"/>
     <use x="1206.105469" xlink:href="#DejaVuSans-64"/>
     <use x="1269.582031" xlink:href="#DejaVuSans-20"/>
     <use x="1301.369141" xlink:href="#DejaVuSans-62"/>
     <use x="1364.845703" xlink:href="#DejaVuSans-65"/>
     <use x="1426.369141" xlink:href="#DejaVuSans-73"/>
     <use x="1478.46875" xlink:href="#DejaVuSans-74"/>
     <use x="1517.677734" xlink:href="#DejaVuSans-20"/>
     <use x="1549.464844" xlink:href="#DejaVuSans-66"/>
     <use x="1584.669922" xlink:href="#DejaVuSans-69"/>
     <use x="1612.453125" xlink:href="#DejaVuSans-74"/>
     <use x="1651.662109" xlink:href="#DejaVuSans-6e"/>
     <use x="1715.041016" xlink:href="#DejaVuSans-65"/>
     <use x="1776.564453" xlink:href="#DejaVuSans-73"/>
     <use x="1828.664062" xlink:href="#DejaVuSans-73"/>
    </g>
   </g>
   <g id="legend_1">
    <g id="patch_7">
     <path d="M 334.779375 302.584 
L 407.72 302.584 
Q 409.72 302.584 409.72 300.584 
L 409.72 257.549625 
Q 409.72 255.549625 407.72 255.549625 
L 334.779375 255.549625 
Q 332.779375 255.549625 332.779375 257.549625 
L 332.779375 300.584 
Q 332.779375 302.584 334.779375 302.584 
z
" style="fill:#ffffff;opacity:0.8;stroke:#cccccc;stroke-linejoin:miter;"/>
    </g>
    <g id="line2d_34">
     <path d="M 336.779375 263.648062 
L 356.779375 263.648062 
" style="fill:none;stroke:#0000ff;stroke-linecap:square;stroke-width:1.5;"/>
    </g>
    <g id="line2d_35"/>
    <g id="text_19">
     <!-- average -->
     <g transform="translate(364.779375 267.148062)scale(0.1 -0.1)">
      <use xlink:href="#DejaVuSans-61"/>
      <use x="61.279297" xlink:href="#DejaVuSans-76"/>
      <use x="120.458984" xlink:href="#DejaVuSans-65"/>
      <use x="181.982422" xlink:href="#DejaVuSans-72"/>
      <use x="223.095703" xlink:href="#DejaVuSans-61"/>
      <use x="284.375" xlink:href="#DejaVuSans-67"/>
      <use x="347.851562" xlink:href="#DejaVuSans-65"/>
     </g>
    </g>
    <g id="line2d_36">
     <path d="M 336.779375 278.326188 
L 356.779375 278.326188 
" style="fill:none;stroke:#008000;stroke-dasharray:9.6,2.4,1.6,2.4;stroke-dashoffset:0;stroke-width:1.5;"/>
    </g>
    <g id="line2d_37"/>
    <g id="text_20">
     <!-- +1 sd -->
     <defs>
      <path d="M 46 62.703125 
L 46 35.5 
L 73.1875 35.5 
L 73.1875 27.203125 
L 46 27.203125 
L 46 0 
L 37.796875 0 
L 37.796875 27.203125 
L 10.59375 27.203125 
L 10.59375 35.5 
L 37.796875 35.5 
L 37.796875 62.703125 
z
" id="DejaVuSans-2b"/>
     </defs>
     <g transform="translate(364.779375 281.826188)scale(0.1 -0.1)">
      <use xlink:href="#DejaVuSans-2b"/>
      <use x="83.789062" xlink:href="#DejaVuSans-31"/>
      <use x="147.412109" xlink:href="#DejaVuSans-20"/>
      <use x="179.199219" xlink:href="#DejaVuSans-73"/>
      <use x="231.298828" xlink:href="#DejaVuSans-64"/>
     </g>
    </g>
    <g id="line2d_38">
     <path d="M 336.779375 293.004312 
L 356.779375 293.004312 
" style="fill:none;stroke:#ff0000;stroke-linecap:square;stroke-width:1.5;"/>
    </g>
    <g id="line2d_39"/>
    <g id="text_21">
     <!-- best -->
     <g transform="translate(364.779375 296.504312)scale(0.1 -0.1)">
      <use xlink:href="#DejaVuSans-62"/>
      <use x="63.476562" xlink:href="#DejaVuSans-65"/>
      <use x="125" xlink:href="#DejaVuSans-73"/>
      <use x="177.099609" xlink:href="#DejaVuSans-74"/>
     </g>
    </g>
   </g>
  </g>
 </g>
 <defs>
  <clipPath id="pcb241c4315">
   <rect height="266.112" width="357.12" x="57.6" y="41.472"/>
  </clipPath>
 </defs>
</svg>
